<svg width="416" height="416" viewBox="0 0 416 416" fill="none" xmlns="http://www.w3.org/2000/svg">
<path d="M4 208C4 95.5191 95.5191 4 208 4C320.481 4 412 95.5191 412 208C412 320.481 320.481 412 208 412C95.5191 412 4 320.481 4 208Z" fill="#0C070A" stroke="#BD065E" stroke-width="8"/>
<path d="M252.906 83.8398C241.504 71.5293 225.578 64.75 208 64.75C190.328 64.75 174.35 71.4883 163 83.7227C151.527 96.0918 145.938 112.902 147.25 131.055C149.852 166.867 177.104 196 208 196C238.897 196 266.102 166.873 268.744 131.066C270.074 113.078 264.449 96.3027 252.906 83.8398Z" fill="#9EFF00"/>
<path d="M311.125 327.25H104.875C102.175 327.285 99.5018 326.718 97.0489 325.59C94.5961 324.462 92.4255 322.801 90.6952 320.729C86.8867 316.176 85.3515 309.959 86.4882 303.672C91.4335 276.238 106.867 253.193 131.125 237.016C152.676 222.654 179.975 214.75 208 214.75C236.025 214.75 263.324 222.66 284.875 237.016C309.133 253.188 324.566 276.232 329.512 303.666C330.648 309.953 329.113 316.17 325.305 320.723C323.575 322.796 321.405 324.458 318.952 325.587C316.499 326.716 313.825 327.284 311.125 327.25Z" fill="#9EFF00"/>
</svg>
