<svg width="50" height="45" viewBox="0 0 50 45" fill="none" xmlns="http://www.w3.org/2000/svg">
    <g id="send">
        <path d="M21.1321 12.3007V2.75431C21.1307 2.29048 20.9459 1.84603 20.6179 1.51806C20.29 1.19008 19.8455 1.00524 19.3817 1.00391H2.88248C2.41866 1.00524 1.97421 1.19008 1.64623 1.51806C1.31826 1.84603 1.13341 2.29048 1.13208 2.75431V14.045C1.13385 14.5085 1.31889 14.9526 1.64682 15.2802C1.97475 15.6078 2.41895 15.7924 2.88248 15.7937H21.1321"
              stroke="#0C070A" stroke-miterlimit="10" stroke-linecap="round"/>
        <path d="M3.36353 4.02954L9.44101 9.43444C9.90689 9.84857 10.5086 10.0773 11.1319 10.0773C11.7552 10.0773 12.3569 9.84857 12.8228 9.43444L18.9003 4.02954"
              stroke="#0C070A" stroke-miterlimit="10" stroke-linecap="round"/>

    </g>

    <g id="save">
        <path d="M9.66868 14.55C9.68977 14.5709 9.71279 14.5897 9.73743 14.6062L9.77493 14.6266C9.80309 14.6446 9.83434 14.6573 9.86712 14.6641L9.90618 14.675C9.96602 14.6868 10.0276 14.6868 10.0874 14.675L10.1281 14.6625L10.1749 14.6484C10.191 14.641 10.2067 14.6326 10.2218 14.6234L10.2546 14.6047C10.2805 14.5873 10.3046 14.5674 10.3265 14.5453L14.5312 10.3453C14.5836 10.3045 14.6268 10.253 14.6578 10.1942C14.6889 10.1355 14.707 10.0708 14.7112 10.0044C14.7153 9.93811 14.7053 9.87167 14.6817 9.80951C14.6582 9.74735 14.6218 9.69091 14.5748 9.64391C14.5278 9.59692 14.4713 9.56046 14.4092 9.53694C14.347 9.51343 14.2806 9.5034 14.2142 9.50752C14.1479 9.51164 14.0832 9.52982 14.0244 9.56085C13.9657 9.59188 13.9142 9.63505 13.8734 9.6875L10.4687 13.0875V0.46875C10.4687 0.34443 10.4193 0.225201 10.3314 0.137294C10.2435 0.049386 10.1243 0 9.99993 0C9.87561 0 9.75638 0.049386 9.66848 0.137294C9.58057 0.225201 9.53118 0.34443 9.53118 0.46875V13.0875L6.12649 9.6875C6.03631 9.61732 5.9236 9.58251 5.80955 9.58959C5.6955 9.59668 5.58797 9.64519 5.50717 9.72599C5.42637 9.80679 5.37786 9.91432 5.37078 10.0284C5.36369 10.1424 5.39851 10.2551 5.46868 10.3453L9.66868 14.55Z"
              fill="#9EFF00"/>
        <path d="M19.5312 13.75C19.4069 13.75 19.2877 13.7994 19.1998 13.8873C19.1119 13.9752 19.0625 14.0944 19.0625 14.2188V17.6562C19.0625 18.0292 18.9143 18.3869 18.6506 18.6506C18.3869 18.9143 18.0292 19.0625 17.6562 19.0625H2.34375C1.97079 19.0625 1.6131 18.9143 1.34938 18.6506C1.08566 18.3869 0.9375 18.0292 0.9375 17.6562V14.2188C0.9375 14.0944 0.888114 13.9752 0.800206 13.8873C0.712299 13.7994 0.59307 13.75 0.46875 13.75C0.34443 13.75 0.225201 13.7994 0.137294 13.8873C0.049386 13.9752 0 14.0944 0 14.2188L0 17.6562C0 18.2779 0.24693 18.874 0.686468 19.3135C1.12601 19.7531 1.72215 20 2.34375 20H17.6562C18.2779 20 18.874 19.7531 19.3135 19.3135C19.7531 18.874 20 18.2779 20 17.6562V14.2188C20 14.0944 19.9506 13.9752 19.8627 13.8873C19.7748 13.7994 19.6556 13.75 19.5312 13.75Z"
              fill="#9EFF00"/>
    </g>


    <!--   skills-->

    <g id="react">
        <path d="M41.1086 14.4703C40.5766 14.287 40.04 14.1173 39.4994 13.9612C39.5902 13.5888 39.6738 13.2209 39.748 12.8595C40.9663 6.92408 40.1698 2.14242 37.4496 0.568064C34.8414 -0.941213 30.5759 0.632551 26.2681 4.39535C25.8435 4.76686 25.4284 5.14907 25.023 5.54162C24.7517 5.28059 24.4756 5.02462 24.1948 4.77385C19.6799 0.750549 15.1545 -0.945133 12.4372 0.633727C9.83134 2.14771 9.05972 6.6428 10.1565 12.2679C10.2656 12.825 10.3888 13.3792 10.526 13.9301C9.88544 14.1127 9.26732 14.3072 8.67577 14.5142C3.38246 16.3665 0.0020752 19.2692 0.0020752 22.2801C0.0020752 25.3898 3.63107 28.5089 9.14429 30.4002C9.59125 30.5529 10.0419 30.6944 10.4959 30.8245C10.3485 31.4178 10.2176 32.0151 10.1034 32.6157C9.05777 38.1432 9.8743 42.532 12.4731 44.0364C15.1573 45.59 19.6624 43.9933 24.0489 40.1446C24.4046 39.8317 24.7525 39.51 25.0922 39.1797C25.5311 39.6047 25.9818 40.0174 26.4436 40.4173C30.6929 44.087 34.8894 45.5688 37.4857 44.0603C40.1673 42.5022 41.0389 37.7874 39.9074 32.0512C39.8182 31.6018 39.7183 31.1546 39.6076 30.7101C39.924 30.616 40.2345 30.5192 40.5372 30.4184C46.2687 28.5126 49.9979 25.4313 49.9979 22.2801C49.9979 19.2582 46.5084 16.3359 41.1086 14.4703ZM39.8656 28.3838C39.5922 28.4746 39.3117 28.5622 39.0258 28.6475C38.393 26.637 37.5392 24.4993 36.4942 22.2905C37.4914 20.1344 38.3124 18.0239 38.9274 16.0266C39.4388 16.1752 39.9351 16.3318 40.4136 16.497C45.0401 18.0957 47.8622 20.459 47.8622 22.2801C47.8622 24.2198 44.8144 26.7379 39.8656 28.3838ZM37.8122 32.4675C38.3126 35.0039 38.3839 37.2972 38.0524 39.0901C37.7548 40.7011 37.156 41.775 36.4155 42.2053C34.84 43.1206 31.4706 41.9309 27.8367 38.7924C27.4071 38.4206 26.9879 38.0369 26.5796 37.6418C27.9884 36.0955 29.3963 34.2978 30.7704 32.3013C33.1874 32.0861 35.4708 31.734 37.5415 31.2536C37.6413 31.656 37.7315 32.0608 37.8122 32.4675ZM17.0468 42.0471C15.5074 42.5926 14.2814 42.6083 13.5402 42.1794C11.9632 41.2666 11.3076 37.7425 12.2018 33.0155C12.3081 32.457 12.4299 31.9015 12.5669 31.3497C14.6147 31.8044 16.8815 32.1313 19.3042 32.3285C20.6877 34.2822 22.1362 36.0778 23.596 37.6502C23.2858 37.9515 22.9682 38.2451 22.6436 38.5307C20.7037 40.2324 18.7599 41.4399 17.0468 42.0471ZM9.83524 28.3719C7.39736 27.5355 5.38405 26.4486 4.00409 25.2626C2.76396 24.1969 2.13803 23.1386 2.13803 22.2801C2.13803 20.4529 4.85206 18.1223 9.37884 16.5384C9.92821 16.3463 10.5032 16.165 11.0998 15.9948C11.7255 18.0373 12.5462 20.1728 13.5365 22.3322C12.5333 24.5236 11.7009 26.6932 11.0691 28.7598C10.6547 28.6406 10.2433 28.5113 9.83524 28.3719ZM12.2526 11.8561C11.3131 7.03678 11.937 3.40139 13.5074 2.48896C15.1799 1.51714 18.8784 2.90274 22.7768 6.37682C23.031 6.60387 23.281 6.83553 23.5269 7.07167C22.0743 8.6372 20.639 10.4195 19.2679 12.3616C16.9165 12.5803 14.6657 12.9316 12.5963 13.4022C12.4688 12.8899 12.3542 12.3744 12.2526 11.8563V11.8561ZM33.8186 17.2009C33.3298 16.3535 32.8229 15.5168 32.2982 14.6914C33.8934 14.8938 35.4218 15.1626 36.857 15.4911C36.4262 16.8773 35.8891 18.3264 35.257 19.8121C34.7949 18.9322 34.3153 18.0616 33.8186 17.2009ZM25.024 8.60369C26.0091 9.67488 26.9957 10.8707 27.9662 12.1683C25.9976 12.075 24.0257 12.0746 22.0571 12.1671C23.0285 10.8815 24.0235 9.68723 25.024 8.60369ZM16.173 17.2156C15.6825 18.0694 15.2119 18.9345 14.7616 19.8104C14.1398 18.3299 13.6076 16.8741 13.1731 15.4683C14.5995 15.1481 16.1207 14.8862 17.7057 14.6874C17.1751 15.5179 16.6641 16.3608 16.173 17.2154V17.2156ZM17.7512 30.0252C16.1136 29.8418 14.5696 29.5934 13.1436 29.2818C13.5849 27.8509 14.1288 26.3641 14.7641 24.8519C15.2162 25.7284 15.6888 26.5941 16.1814 27.4483C16.688 28.3264 17.2126 29.1865 17.7512 30.0252ZM25.083 36.1074C24.0706 35.0113 23.0609 33.7986 22.0749 32.4944C23.0322 32.532 24.0081 32.5512 25 32.5512C26.0191 32.5512 27.0264 32.5283 28.0179 32.484C27.0444 33.8117 26.0614 35.0262 25.083 36.1074ZM35.2771 24.7747C35.9454 26.3036 36.5086 27.7825 36.9558 29.1888C35.5064 29.5209 33.9413 29.7882 32.2922 29.9868C32.8206 29.146 33.3323 28.2948 33.827 27.4336C34.33 26.5582 34.8134 25.6717 35.2771 24.7747ZM31.977 26.3626C31.2196 27.683 30.4197 28.9783 29.5785 30.2465C28.0547 30.3548 26.5276 30.4086 25 30.4078C23.4441 30.4078 21.9307 30.3592 20.4734 30.2644C19.6103 28.9991 18.7951 27.7015 18.0297 26.3743H18.0299C17.2681 25.0542 16.5565 23.7056 15.8967 22.3312C16.5548 20.9566 17.2642 19.6073 18.0234 18.2862L18.0232 18.2864C18.7822 16.9649 19.5908 15.6729 20.4475 14.413C21.9342 14.3001 23.4589 14.2413 24.9998 14.2413H25C26.5479 14.2413 28.0746 14.3007 29.561 14.4144C30.4089 15.6724 31.2124 16.96 31.9699 18.2748C32.7317 19.593 33.4505 20.9357 34.1252 22.3009C33.4574 23.6799 32.7409 25.0347 31.977 26.3626ZM36.3829 2.42506C38.0569 3.39413 38.708 7.30198 37.6562 12.4267C37.589 12.7536 37.5136 13.0866 37.4316 13.4244C35.3572 12.9437 33.1048 12.5864 30.7466 12.3643C29.3729 10.4009 27.9494 8.61584 26.5204 7.0705C26.8949 6.70817 27.2783 6.35525 27.6703 6.01204C31.3614 2.78827 34.8111 1.51538 36.3829 2.42506ZM25 17.7993C27.4656 17.7993 29.4645 19.8055 29.4645 22.2801C29.4645 24.7547 27.4656 26.7609 25 26.7609C22.5344 26.7609 20.5355 24.7547 20.5355 22.2801C20.5355 19.8055 22.5344 17.7993 25 17.7993Z"
              fill="#00D8FF"/>
    </g>

    <g id="redux">
        <path d="M34.6447 33.151C36.4898 32.96 37.8896 31.3693 37.826 29.4603C37.7625 27.5516 36.1717 26.0244 34.2629 26.0244H34.1357C32.1631 26.0881 30.6361 27.7424 30.6998 29.7148C30.7635 30.6693 31.1451 31.4965 31.7178 32.0691C29.5545 36.3324 26.2459 39.4502 21.283 42.059C17.9107 43.8406 14.4113 44.4769 10.9119 44.0316C8.04863 43.6498 5.82168 42.3773 4.42168 40.2773C2.38574 37.1596 2.19492 33.7871 3.91289 30.4148C5.12187 27.9969 7.03047 26.2152 8.23945 25.3244C7.98496 24.4973 7.60312 23.0975 7.4123 22.0795C-1.81367 28.7605 -0.859182 37.7959 1.94043 42.059C4.04004 45.2406 8.30312 47.2131 13.0115 47.2131C14.284 47.2131 15.5564 47.0857 16.8291 46.7678C24.9734 45.1769 31.1453 40.341 34.6447 33.151ZM45.8432 25.2609C41.0074 19.5978 33.8812 16.4801 25.7369 16.4801H24.7189C24.1463 15.3348 22.9373 14.5711 21.6012 14.5711H21.4738C19.5016 14.6348 17.9746 16.2891 18.0381 18.2617C18.1018 20.1705 19.6924 21.6977 21.6012 21.6977H21.7283C23.1281 21.634 24.3371 20.7432 24.8461 19.5342H25.9914C30.8271 19.5342 35.4082 20.934 39.5441 23.6701C42.7254 25.7699 45.016 28.5061 46.2885 31.8146C47.3701 34.4871 47.3064 37.0959 46.1611 39.323C44.3797 42.6953 41.3892 44.5406 37.4443 44.5406C34.8992 44.5406 32.4814 43.7769 31.2088 43.2043C30.509 43.8406 29.2363 44.8586 28.3455 45.4951C31.0816 46.7676 33.8812 47.4676 36.5535 47.4676C42.6617 47.4676 47.1793 44.0951 48.8973 40.7228C50.7424 37.0322 50.615 30.6693 45.8432 25.2609ZM13.5205 34.2324C13.5842 36.1414 15.1748 37.6684 17.0836 37.6684H17.2109C19.1834 37.6049 20.7103 35.9504 20.6467 33.9779C20.5832 32.0689 18.9924 30.542 17.0836 30.542H16.9564C16.8291 30.542 16.6381 30.542 16.5111 30.6055C13.9023 26.2787 12.8207 21.5703 13.2025 16.4799C13.4568 12.6621 14.7295 9.35332 16.9564 6.61719C18.8016 4.26289 22.3646 3.11758 24.7826 3.0541C31.5269 2.92676 34.39 11.3258 34.581 14.6982C35.4082 14.8891 36.808 15.3346 37.7625 15.6527C36.9988 5.34492 30.6361 0 24.5281 0C18.8016 0 13.5205 4.13594 11.4207 10.2443C8.49394 18.3889 10.4027 26.2152 13.9658 32.3873C13.6478 32.8326 13.4568 33.5326 13.5205 34.2326V34.2324Z"
              fill="#764ABC"/>
    </g>

    <g id="js">
        <path d="M3.125 3.125H46.875V46.875H3.125V3.125Z" fill="#F5DE19"/>
        <path d="M32.5141 37.3047C32.8868 38.0619 33.466 38.6983 34.1847 39.1406C34.9035 39.5829 35.7326 39.8131 36.5766 39.8047C38.2797 39.8047 39.3688 38.9531 39.3688 37.7734C39.3688 36.3672 38.25 35.8641 36.375 35.0438L35.3469 34.6031C32.3781 33.3391 30.4094 31.7562 30.4094 28.4094C30.4094 25.3266 32.7531 22.9781 36.4297 22.9781C37.6199 22.8922 38.809 23.1586 39.8487 23.744C40.8885 24.3295 41.7329 25.2081 42.2766 26.2703L39.0625 28.325C38.8532 27.7983 38.4887 27.3477 38.0173 27.0329C37.546 26.7182 36.9901 26.5541 36.4234 26.5625C36.1762 26.5377 35.9265 26.5648 35.6903 26.6419C35.454 26.7189 35.2365 26.8444 35.0514 27.0102C34.8663 27.176 34.7178 27.3785 34.6154 27.6049C34.5129 27.8313 34.4587 28.0765 34.4563 28.325C34.4563 29.5578 35.2203 30.0578 36.9844 30.825L38.0125 31.2656C41.5063 32.7641 43.4813 34.2906 43.4813 37.7234C43.4813 41.425 40.5734 43.4531 36.6688 43.4531C35.1474 43.5501 33.6304 43.2046 32.301 42.4586C30.9715 41.7125 29.8864 40.5976 29.1766 39.2484L32.5141 37.3047ZM17.9906 37.6609C18.6359 38.8063 19.2234 39.775 20.6359 39.775C21.9859 39.775 22.8391 39.2469 22.8391 37.1922V23.2125H26.95V37.2469C26.95 41.5031 24.45 43.4406 20.8109 43.4406C19.5246 43.5109 18.2471 43.1904 17.1464 42.5211C16.0457 41.8518 15.1732 40.865 14.6438 39.6906L17.9906 37.6609Z"
              fill="black"/>
    </g>

    <g id="git">
        <g>
            <path d="M49.057 22.7725L27.2266 0.943164C25.9701 -0.314063 23.9311 -0.314063 22.673 0.943164L18.1398 5.47637L23.8904 11.227C25.2268 10.7754 26.7592 11.0783 27.8244 12.1436C28.8947 13.2156 29.1955 14.7611 28.733 16.1018L34.275 21.6439C35.6158 21.182 37.1629 21.4809 38.2338 22.5535C39.7305 24.0496 39.7305 26.4744 38.2338 27.9715C36.7367 29.4688 34.3119 29.4688 32.8141 27.9715C31.6883 26.8445 31.4102 25.1912 31.9801 23.8043L26.8117 18.6359L26.8111 32.2369C27.1858 32.4222 27.528 32.6669 27.8244 32.9615C29.3211 34.4576 29.3211 36.8826 27.8244 38.3809C26.3273 39.8773 23.9014 39.8773 22.4064 38.3809C20.9098 36.8826 20.9098 34.4578 22.4064 32.9617C22.7651 32.6029 23.1914 32.3187 23.6605 32.1256V18.3979C23.1907 18.206 22.7642 17.9217 22.4064 17.5617C21.2725 16.4293 20.9998 14.7654 21.5809 13.373L15.9121 7.70371L0.943359 22.6715C-0.314453 23.9299 -0.314453 25.9691 0.943359 27.2266L22.7742 49.0563C24.0311 50.3137 26.0697 50.3137 27.3281 49.0563L49.0568 27.3279C50.3143 26.0701 50.3143 24.0297 49.0568 22.7725"
                  fill="#DE4C36"/>
        </g>
    </g>

    <g id="html">
        <path d="M9.22187 42.1474L5.71249 3.09894H44.2875L40.7734 42.1412L24.9766 46.4844L9.22187 42.1474Z"
              fill="#1572B6"/>
        <path d="M25 43.1654L37.7656 39.6558L40.7687 6.29242H25V43.1654Z" fill="#33A9DC"/>
        <path d="M25 20.4392H31.3906L31.8312 15.5351H25V10.7457H37.1094L36.9938 12.0302L35.8078 25.2286H25V20.4392Z"
              fill="white"/>
        <path d="M25.0297 32.8768L25.0078 32.883L19.6297 31.442L19.2859 27.6226H14.4375L15.1141 35.1422L25.0062 37.8662L25.0297 37.86V32.8768Z"
              fill="#EBEBEB"/>
        <path d="M30.9797 25.0256L30.3985 31.4389L25.0125 32.8799V37.8631L34.9125 35.1422L34.986 34.3334L35.825 25.0256H30.9797Z"
              fill="white"/>
        <path d="M25.0172 10.7457V15.5351H13.3516L13.2547 14.4582L13.0344 12.0302L12.9188 10.7457H25.0172ZM25 20.4392V25.2286H19.6891L19.5922 24.1518L19.3735 21.7237L19.2578 20.4392H25Z"
              fill="#EBEBEB"/>
    </g>

    <g id="css">
        <path d="M9.22187 42.5016L5.71094 3.125H44.2891L40.7734 42.4953L24.9766 46.875L9.22187 42.5016Z"
              fill="#E44F26"/>
        <path d="M25 43.5282L37.7656 39.9891L40.7687 6.34534H25V43.5282Z" fill="#F1662A"/>
        <path d="M25 20.9485H18.6094L18.1688 16.0031H25V11.1735H12.8906L13.0063 12.4703L14.1922 25.7781H25V20.9485ZM25 33.4907L24.9781 33.4969L19.6 32.0453L19.2563 28.1938H14.4078L15.0844 35.775L24.9781 38.5219L25 38.5157V33.4907Z"
              fill="#EBEBEB"/>
        <path d="M24.9828 20.9485V25.7781H30.9297L30.3703 32.0422L24.9828 33.4953V38.5203L34.8844 35.775L34.9562 34.9594L36.0906 22.2453L36.2093 20.9485H24.9828ZM24.9828 11.1735V16.0031H36.6484L36.7453 14.9188L36.9656 12.4703L37.0812 11.1735H24.9828Z"
              fill="white"/>
    </g>

    <g id="sass">
        <g>
            <path d="M43.0227 21.4003C41.2834 21.4092 39.7715 21.8246 38.5058 22.4386C38.0411 21.5266 37.5767 20.714 37.4949 20.118C37.4037 19.4228 37.2945 18.9983 37.4037 18.1676C37.513 17.3369 38.0048 16.1539 37.9956 16.0637C37.9866 15.9734 37.8863 15.549 36.8846 15.5401C35.8829 15.531 35.0177 15.7297 34.9175 15.9915C34.8173 16.2533 34.6261 16.8493 34.4985 17.4631C34.3255 18.3663 32.4951 21.5897 31.4479 23.2782C31.1108 22.6193 30.8194 22.0413 30.7556 21.5808C30.6646 20.8856 30.5552 20.4611 30.6646 19.6304C30.7739 18.7997 31.2657 17.6169 31.2565 17.5265C31.2473 17.4362 31.1471 17.0118 30.1454 17.0029C29.1435 16.9938 28.2783 17.1924 28.1784 17.4542C28.0782 17.7162 27.9688 18.3301 27.7594 18.9261C27.5499 19.5222 25.1183 24.9039 24.4809 26.2942C24.2233 26.857 23.953 27.414 23.6704 27.9648C23.6704 27.9648 23.6612 27.9919 23.6339 28.037C23.545 28.2097 23.454 28.3813 23.3608 28.5517V28.5606C23.2241 28.8046 23.0784 29.0302 23.0056 29.0302C22.9509 29.0302 22.8507 28.3802 23.0237 27.4952C23.388 25.6262 24.2532 22.7186 24.2442 22.6193C24.2442 22.5651 24.408 22.0595 23.6796 21.7975C22.969 21.5357 22.7142 21.969 22.6503 21.969C22.5866 21.969 22.5409 22.1226 22.5409 22.1226C22.5409 22.1226 23.3335 18.8539 21.0293 18.8539C19.5905 18.8539 17.6051 20.416 16.6215 21.8246C15.5034 22.4278 14.3863 23.0329 13.2701 23.6396C12.733 23.9376 12.1774 24.2356 11.6583 24.5154C11.6218 24.4794 11.5854 24.4341 11.5489 24.3981C8.76214 21.4454 3.60771 19.3595 3.82625 15.3956C3.90828 13.9508 4.40903 10.1583 13.7256 5.55332C21.3935 1.80593 27.4954 2.84425 28.5518 5.14686C30.0634 8.43376 25.2824 14.5378 17.3592 15.4225C14.3357 15.7568 12.751 14.6009 12.3504 14.1675C11.9315 13.716 11.8676 13.6888 11.7128 13.7793C11.4579 13.9148 11.6218 14.3211 11.7128 14.5558C11.9497 15.1696 12.924 16.2533 14.5724 16.7862C16.0295 17.2556 19.5721 17.5176 23.8616 15.8741C28.6609 14.032 32.4131 8.91225 31.3112 4.62325C30.2091 0.270926 22.9235 -1.16474 16.0295 1.26412C11.9315 2.70909 7.4872 4.98439 4.29068 7.94617C0.493018 11.4676 -0.108124 14.5287 0.137762 15.811C1.02131 20.3618 7.35068 23.3236 9.88239 25.5177C9.75486 25.59 9.63631 25.6533 9.53631 25.7075C8.27036 26.3305 3.44365 28.8315 2.24156 31.4773C0.875616 34.4751 2.4603 36.6243 3.50752 36.913C6.75872 37.8071 10.1009 36.1999 11.895 33.545C13.689 30.8904 13.4705 27.441 12.6418 25.8609C12.6326 25.8429 12.6237 25.8247 12.6053 25.8066C12.9332 25.6171 13.2701 25.4184 13.598 25.2288C14.2007 24.8756 14.811 24.5353 15.4286 24.2083C15.1188 25.0481 14.8911 26.0504 14.782 27.4952C14.6452 29.1929 15.3464 31.396 16.2663 32.2627C16.6762 32.6422 17.1588 32.6512 17.4685 32.6512C18.5431 32.6512 19.0259 31.7662 19.5632 30.7188C20.2188 29.4367 20.8108 27.9468 20.8108 27.9468C20.8108 27.9468 20.0731 31.974 22.0767 31.974C22.8052 31.974 23.5428 31.0348 23.8708 30.5563V30.5652C23.8708 30.5652 23.8889 30.5381 23.9254 30.475C23.9983 30.3576 24.0438 30.2852 24.0438 30.2852V30.2674C24.3352 29.7616 24.991 28.6149 25.9654 26.7096C27.2221 24.2536 28.4334 21.1836 28.4334 21.1836C28.4334 21.1836 28.5428 21.933 28.916 23.1791C29.1347 23.9105 29.5898 24.7141 29.9542 25.4906C29.6628 25.8971 29.4806 26.1227 29.4806 26.1227L29.4898 26.1318C29.2529 26.4387 28.998 26.7727 28.7156 27.0981C27.7229 28.2717 26.5392 29.6173 26.3751 30.0054C26.1837 30.4659 26.2294 30.8001 26.5939 31.071C26.8579 31.2697 27.3313 31.2966 27.8141 31.2697C28.7066 31.2064 29.3349 30.9897 29.6445 30.8543C30.1273 30.6828 30.6919 30.4208 31.22 30.0325C32.1946 29.3191 32.7863 28.2988 32.7318 26.9536C32.7045 26.2131 32.4586 25.4726 32.158 24.7772C32.2492 24.651 32.3311 24.5245 32.4223 24.3981C33.9613 22.1677 35.1544 19.7206 35.1544 19.7206C35.1544 19.7206 35.2637 20.47 35.637 21.7163C35.8192 22.3484 36.1926 23.0346 36.5203 23.7027C35.0723 24.8677 34.1798 26.222 33.8611 27.107C33.2875 28.7504 33.7335 29.4907 34.5806 29.6623C34.963 29.7436 35.5094 29.5629 35.9102 29.3914C36.4201 29.2289 37.0213 28.9491 37.5951 28.5335C38.5696 27.8203 39.5075 26.827 39.4528 25.4817C39.4254 24.8677 39.2616 24.2625 39.0339 23.6756C40.2633 23.1702 41.848 22.8902 43.8696 23.1249C48.2047 23.6305 49.0607 26.3122 48.8966 27.4412C48.7328 28.5697 47.8221 29.1838 47.5217 29.3734C47.221 29.5631 47.121 29.6263 47.1483 29.7616C47.1846 29.9603 47.3303 29.9514 47.5854 29.9152C47.9406 29.852 49.8622 29.0031 49.9441 26.9263C50.0808 24.2716 47.5307 21.3732 43.0227 21.4003ZM9.58182 32.5789C8.14283 34.1319 6.13941 34.7189 5.27422 34.2224C4.34536 33.6895 4.7096 31.396 6.47631 29.7527C7.55087 28.7504 8.93517 27.8201 9.85505 27.2514C10.0644 27.125 10.3742 26.9445 10.7476 26.7187C10.8113 26.6825 10.8478 26.6645 10.8478 26.6645L11.0663 26.5289C11.7128 28.8767 11.0937 30.9446 9.58182 32.5789ZM20.0549 25.5177C19.554 26.7278 18.5068 29.8249 17.8693 29.6534C17.3228 29.5089 16.9857 27.1612 17.7599 24.8406C18.1515 23.6756 18.9802 22.2851 19.463 21.7434C20.2461 20.8765 21.1113 20.5874 21.3207 20.9398C21.5849 21.4003 20.3645 24.7592 20.0549 25.5177ZM28.6975 29.6172C28.4879 29.7256 28.2877 29.7978 28.1965 29.7436C28.1328 29.7074 28.2877 29.5629 28.2877 29.5629C28.2877 29.5629 29.3715 28.4073 29.7994 27.8835C30.0454 27.5765 30.3366 27.2154 30.6464 26.8089V26.9263C30.6464 28.3079 29.2984 29.238 28.6973 29.6172H28.6975ZM35.3637 28.1093C35.2089 28.0008 35.2362 27.6397 35.7553 26.5109C35.9557 26.0685 36.4291 25.3282 37.2398 24.6148C37.3308 24.9037 37.3947 25.1837 37.3855 25.4455C37.3763 27.1883 36.1198 27.8384 35.3637 28.1093Z"
                  fill="#CD6799"/>
        </g>

    </g>

    <g id="styled">
        <path d="M28.653 49.2831C28.728 49.1135 28.9172 48.9956 29.0547 48.8528C31.1527 46.6531 33.2685 44.473 35.3379 42.2465C35.9854 41.6484 36.4858 40.9086 36.7999 40.085C37.114 39.2613 37.2333 38.3762 37.1484 37.4988C37.0834 37.1231 36.9982 36.7512 36.8931 36.3846C36.3288 36.9203 35.8039 37.4077 35.2754 37.8988C34.4541 38.6629 33.6363 39.4307 32.8078 40.186C32.3193 40.6841 31.6912 41.0222 31.0064 41.1558C30.3216 41.2894 29.6125 41.2121 28.9726 40.9341C28.3248 40.6961 27.7612 40.2731 27.3517 39.7177C26.9422 39.1622 26.7049 38.4987 26.6693 37.8095C26.6501 37.7208 26.6244 37.6337 26.5925 37.5488C25.9622 38.0844 25.3587 38.5772 24.7606 39.0843L12.3281 49.6188C12.2424 49.692 12.1496 49.7831 12.0692 49.8545H28.644L28.619 49.8384C28.5298 49.7759 28.5762 49.4474 28.653 49.2831V49.2831Z"
              fill="#FFCEBF"/>
        <path d="M11.3098 49.2828C11.4572 49.0908 11.6352 48.9243 11.8365 48.79L29.0416 34.1935C30.2153 33.1972 31.3836 32.1955 32.5466 31.1885C32.6903 31.0883 32.8029 30.9497 32.8715 30.7885C33.1497 29.5763 33.1891 28.3216 32.9876 27.0943C32.8091 27.2193 32.7126 27.2729 32.6305 27.3603C31.2217 28.6209 29.8201 29.8922 28.4042 31.1456C27.9352 31.6177 27.3285 31.9289 26.6715 32.0344C26.0144 32.14 25.3408 32.0345 24.7475 31.733C24.1422 31.4473 23.6356 30.9879 23.2922 30.4134C22.9488 29.8388 22.7842 29.1751 22.8192 28.5066V27.9281C22.5603 28.1174 22.371 28.2442 22.1942 28.387C15.3081 33.9006 8.42325 39.4101 1.53955 44.9154C1.22887 45.1636 0.857484 45.7171 0.45039 45.1797C0.0432952 44.6422 0.662864 44.4208 0.975327 44.1709C8.31374 38.2823 15.6557 32.399 23.0013 26.5212C24.1976 25.5623 24.2761 25.1606 23.4977 23.6376L23.0334 24.0732C21.7604 25.257 20.473 26.4247 19.2196 27.6282C18.7054 28.1241 18.0615 28.4645 17.3621 28.6101C16.6627 28.7556 15.9365 28.7004 15.2671 28.4508C14.5978 28.2012 14.0127 27.7673 13.5795 27.1994C13.1462 26.6314 12.8824 25.9525 12.8186 25.241C12.5811 25.4195 12.3758 25.5498 12.1811 25.7016L1.28958 34.1435C1.10173 34.3277 0.8875 34.483 0.653937 34.6041C0.477661 34.6574 0.288369 34.6479 0.118286 34.5774V49.863H11.2884C11.2469 49.7712 11.2272 49.6711 11.2309 49.5704C11.2346 49.4697 11.2616 49.3712 11.3098 49.2828V49.2828Z"
              fill="#FFCEBF"/>
        <path d="M41.4856 0.758806C41.1821 1.75333 40.8875 2.74964 40.6214 3.75488C40.3757 4.46526 40.4043 5.24182 40.7016 5.93221C40.9989 6.6226 41.5434 7.17698 42.2284 7.48658C44.3235 8.58788 46.6844 9.08257 49.0454 8.91498V0.928429C49.0192 0.753325 49.0289 0.574714 49.074 0.403491C49.124 0.306638 49.1871 0.21712 49.2615 0.137451H41.4785C41.5981 0.27672 41.557 0.521334 41.4856 0.758806V0.758806Z"
              fill="#FF6196"/>
        <path d="M25.8546 17.9157C25.8176 18.8071 25.5057 19.6653 24.9618 20.3725C23.0174 22.8825 20.7845 25.155 18.3091 27.1431C17.9099 27.5127 17.4039 27.7463 16.8637 27.8104C16.3235 27.8746 15.7769 27.766 15.3023 27.5002C14.8298 27.2984 14.4315 26.9552 14.162 26.5179C13.8925 26.0805 13.765 25.5704 13.7971 25.0577C13.8543 24.4279 14.1157 23.8342 14.5416 23.3668C17.3098 20.7273 20.3089 18.3413 23.5031 16.2373C23.7123 16.0732 23.9678 15.9791 24.2334 15.9682C24.499 15.9573 24.7613 16.0302 24.9833 16.1766C25.275 16.3577 25.5108 16.6161 25.6646 16.923C25.8184 17.23 25.8841 17.5736 25.8546 17.9157V17.9157Z"
              fill="#FF87AF"/>
        <path d="M23.7136 28.7376C23.6722 28.3429 23.7228 27.944 23.8616 27.5722C24.0004 27.2005 24.2236 26.8659 24.5135 26.595C27.2239 24.0951 30.1318 21.8183 33.2089 19.7869C33.3018 19.728 33.3875 19.669 33.4892 19.6083C33.758 19.4143 34.0837 19.3151 34.415 19.3264C34.7463 19.3377 35.0645 19.4589 35.3194 19.6708C35.566 19.8798 35.7406 20.1611 35.8181 20.4749C35.8957 20.7888 35.8724 21.119 35.7515 21.4188C35.3622 22.7154 34.6437 23.8891 33.666 24.8256C31.6804 26.7817 29.6564 28.6985 27.5953 30.5749C27.2849 30.8941 26.8772 31.101 26.4363 31.1631C25.9954 31.2251 25.5463 31.1388 25.1599 30.9177C24.7538 30.7067 24.408 30.3959 24.155 30.0145C23.902 29.6332 23.7501 29.1938 23.7136 28.7376Z"
              fill="#FF87AF"/>
        <path d="M36.5976 29.9174C36.0977 30.453 35.5835 30.9637 35.1032 31.5118C34.9587 31.7237 34.8389 31.9513 34.7461 32.1903C35.0103 32.2689 35.3192 32.476 35.5335 32.4028C36.6244 32.0368 37.6886 31.5975 38.8866 31.1351C38.626 31.735 38.4296 32.2885 38.1528 32.7956C37.0127 34.7117 35.5849 36.4412 33.9194 37.9236C33.2861 38.5342 32.6285 39.1181 31.9464 39.6752C31.5852 39.9749 31.1509 40.1733 30.6878 40.2501C30.2248 40.3269 29.7496 40.2793 29.311 40.1122C28.8724 39.9451 28.486 39.6645 28.1914 39.2991C27.8969 38.9337 27.7046 38.4966 27.6344 38.0325C27.6058 37.7745 27.6286 37.5133 27.7015 37.2641C27.7745 37.015 27.8961 36.7827 28.0594 36.5809C30.4891 33.9424 33.2659 31.646 36.3137 29.7549C36.3508 29.7405 36.3901 29.7327 36.4298 29.7317L36.5976 29.9174Z"
              fill="#FF87AF"/>
        <path d="M40.6968 22.8057L43.7518 9.23584L45.8944 9.73757L44.7891 13.0961C43.7571 16.2207 42.7126 19.3454 41.7056 22.4736C41.5092 23.0521 41.2521 23.1592 40.6968 22.8057V22.8057Z"
              fill="#FF6196"/>
        <path d="M37.2441 30.787C37.5673 29.5532 37.8887 28.4123 38.1601 27.2589C38.4246 26.1403 38.9277 25.0921 39.6349 24.186C40.0688 23.6164 40.5562 23.8432 41.0544 23.9664C41.5151 24.0789 41.6311 24.4163 41.6508 24.8591C41.7234 26.0837 41.3505 27.2931 40.6009 28.2641C39.7085 29.3704 38.555 30.2374 37.2441 30.787V30.787Z"
              fill="#FF6196"/>
        <path d="M49.9766 1.59982C50.0032 1.20216 49.9931 0.802888 49.9462 0.4071C49.9094 0.296546 49.8364 0.20159 49.7391 0.137489C49.6599 0.07304 49.5671 0.0272698 49.4677 0.00357657C49.4106 -0.00713645 49.3302 0.0517849 49.2535 0.135704C49.1791 0.215372 49.116 0.304891 49.066 0.401744C49.0209 0.572966 49.0112 0.751578 49.0374 0.926681V8.91145C46.6764 9.07904 44.3155 8.58434 42.2204 7.48305C41.5354 7.17345 40.9909 6.61907 40.6936 5.92868C40.3963 5.23829 40.3677 4.46172 40.6134 3.75135C40.8795 2.74611 41.1741 1.7498 41.4776 0.755273C41.549 0.517801 41.5901 0.273187 41.4776 0.133918C41.415 0.0661206 41.3287 0.0251698 41.2366 0.0196462C41.1186 0.0209184 41.0044 0.0610869 40.9116 0.133918C40.7781 0.213785 40.6717 0.331995 40.6063 0.473164C40.2492 1.54447 39.9349 2.62648 39.6617 3.71921C39.5586 4.14982 39.5308 4.59503 39.5796 5.03512C39.6487 5.83141 39.9448 6.59115 40.4329 7.22414C40.9209 7.85712 41.5803 8.33677 42.3329 8.60613C42.6703 8.74718 42.8685 8.88645 42.7739 9.33104C42.6435 9.89526 42.5168 10.4595 42.3882 11.0255C41.5133 14.8607 40.6432 18.6978 39.7778 22.5366C39.7534 22.7078 39.6781 22.8676 39.5618 22.9955C38.9914 23.4489 38.5121 24.0063 38.1494 24.6382C37.6872 25.4721 37.3674 26.3772 37.2031 27.3164C37.1716 27.616 37.0633 27.9024 36.8888 28.1479C36.7143 28.3934 36.4794 28.5898 36.2068 28.718C35.4622 29.0948 34.7784 29.5822 33.9517 30.0893C34.0068 29.0951 33.9961 28.0984 33.9196 27.1057C33.8567 26.8003 33.87 26.4842 33.9585 26.1852C34.0469 25.8862 34.2077 25.6136 34.4267 25.3916C35.5156 24.3128 36.2919 22.959 36.6728 21.4742C36.7866 21.1301 36.8178 20.7639 36.7639 20.4055C36.71 20.047 36.5725 19.7062 36.3625 19.4107C36.1525 19.1152 35.876 18.8733 35.5552 18.7045C35.2344 18.5356 34.8784 18.4447 34.5159 18.4389C33.9291 18.4324 33.3529 18.5961 32.8572 18.9103C31.1535 20.0737 29.4793 21.2799 27.8364 22.5277C26.8597 23.2633 25.9402 24.0775 24.9938 24.8488C24.9531 24.805 24.9177 24.7565 24.8885 24.7042C24.8704 24.5728 24.835 24.4443 24.7832 24.3221C23.9922 23.1008 24.5403 22.2134 25.3992 21.3011C26.2939 20.3632 26.7883 19.1137 26.7776 17.8175C26.8053 17.1571 26.5985 16.5082 26.1937 15.9856C25.9781 15.7203 25.7123 15.5001 25.4117 15.3375C24.9846 15.1037 24.4962 15.0061 24.012 15.0578C23.5279 15.1095 23.0712 15.308 22.703 15.6267L22.2049 15.9838C21.0675 16.798 19.9159 17.5908 18.8214 18.4621C17.2235 19.7378 15.6601 21.056 14.1326 22.4152C13.4184 23.0455 12.8971 23.9061 12.1561 24.4917C8.29225 27.5432 4.38736 30.5392 0.496751 33.555C0.362972 33.6348 0.239962 33.7314 0.130723 33.8424C0.119477 33.8587 0.109906 33.876 0.102155 33.8942C0.0200217 34.0853 -0.0496127 34.4013 0.0468044 34.5173C0.070439 34.5425 0.0990042 34.5626 0.130723 34.5763C0.300806 34.6469 0.490097 34.6563 0.666374 34.603C0.899936 34.4819 1.11416 34.3266 1.30201 34.1424L12.1936 25.7005C12.3882 25.5488 12.5935 25.4113 12.831 25.2399C12.8949 25.9514 13.1586 26.6303 13.5919 27.1983C14.0252 27.7662 14.6102 28.2001 15.2796 28.4497C15.9489 28.6993 16.6752 28.7546 17.3746 28.609C18.0739 28.4634 18.7179 28.123 19.232 27.6271C20.4819 26.4237 21.7728 25.2559 23.0459 24.0721L23.5101 23.6365C24.2886 25.1595 24.21 25.5613 23.0137 26.5201C15.6622 32.4027 8.31606 38.2865 0.975266 44.1716C0.662803 44.4215 0.0450191 44.6483 0.450328 45.1804C0.855637 45.7124 1.22881 45.1643 1.53948 44.9161C8.42676 39.4156 15.3093 33.9079 22.187 28.3931C22.3656 28.2502 22.5531 28.1235 22.812 27.9342V28.5127C22.777 29.1811 22.9416 29.8449 23.285 30.4194C23.6284 30.994 24.135 31.4534 24.7403 31.7391C25.3336 32.0405 26.0072 32.146 26.6643 32.0405C27.3213 31.9349 27.928 31.6237 28.397 31.1517C29.8129 29.9018 31.2145 28.627 32.6233 27.3664C32.7126 27.2861 32.8161 27.2253 32.9804 27.1004C33.1819 28.3276 33.1425 29.5824 32.8643 30.7946C32.7957 30.9557 32.6831 31.0943 32.5394 31.1945C31.3752 32.2004 30.2069 33.202 29.0344 34.1995L11.8365 48.7978C11.6351 48.9321 11.4572 49.0986 11.3098 49.2906C11.2627 49.3782 11.2363 49.4753 11.2326 49.5747C11.2289 49.674 11.2479 49.7729 11.2883 49.8637C11.369 49.9242 11.4623 49.9657 11.5612 49.9852C11.6601 50.0046 11.7621 50.0016 11.8597 49.9762C11.9367 49.9539 12.0075 49.9142 12.0668 49.8602C12.1561 49.7887 12.2454 49.6977 12.3257 49.6245L24.7582 39.09C25.3563 38.5829 25.9598 38.083 26.5901 37.5545C26.622 37.6394 26.6477 37.7265 26.6669 37.8152C26.7025 38.5043 26.9398 39.1679 27.3493 39.7233C27.7588 40.2788 28.3224 40.7018 28.9702 40.9398C29.6101 41.2178 30.3192 41.2951 31.004 41.1615C31.6888 41.0279 32.3169 40.6898 32.8054 40.1917C33.6339 39.4364 34.4517 38.6686 35.273 37.9044C35.8086 37.4134 36.3264 36.9206 36.8906 36.3903C36.9958 36.7568 37.081 37.1288 37.146 37.5045C37.228 38.379 37.1074 39.2606 36.7934 40.0809C36.4794 40.9012 35.9805 41.6381 35.3355 42.2343C33.2661 44.4626 31.1503 46.6427 29.0523 48.8406C28.9148 48.9835 28.7255 49.1013 28.6506 49.2709C28.5756 49.4406 28.5274 49.7727 28.6166 49.8441L28.6416 49.8602C28.8288 49.9512 29.0394 49.983 29.2451 49.9512C29.3028 49.9394 29.3542 49.907 29.3898 49.8602C29.4397 49.8084 29.488 49.7441 29.5362 49.6959C31.236 47.939 32.9447 46.191 34.632 44.4215C35.3131 43.7315 35.9534 43.0024 36.5496 42.2379C37.3271 41.3771 37.8427 40.3122 38.0356 39.1685C38.2286 38.0247 38.0909 36.8497 37.6388 35.7815C37.5902 35.5433 37.6377 35.2956 37.7709 35.0923C37.887 34.8923 38.0155 34.6977 38.1476 34.5048C38.5704 33.9559 38.9225 33.3561 39.1957 32.7193C39.7237 31.1567 40.534 29.7042 41.5865 28.4341C42.0704 27.8207 42.4033 27.1021 42.5583 26.3363C42.7134 25.5706 42.6863 24.7791 42.4793 24.0257C42.4061 23.7393 42.4061 23.4391 42.4793 23.1526C43.3827 20.3547 44.313 17.5658 45.2343 14.775L46.4663 11.0362L46.8466 9.88098C47.6572 9.88098 48.4214 9.86491 49.182 9.88098C49.8141 9.89883 50.007 9.60244 49.9998 8.98823C49.9623 6.52423 49.9766 4.06202 49.9766 1.59982V1.59982ZM18.3071 27.1432C17.9079 27.5127 17.402 27.7463 16.8618 27.8105C16.3216 27.8746 15.775 27.7661 15.3004 27.5003C14.8279 27.2985 14.4296 26.9553 14.1601 26.5179C13.8906 26.0806 13.7631 25.5705 13.7952 25.0577C13.8524 24.428 14.1138 23.8342 14.5397 23.3669C17.3079 20.7274 20.307 18.3413 23.5012 16.2374C23.6755 16.1141 23.8738 16.0289 24.0832 15.9874C24.2237 15.9615 24.3677 15.9615 24.5082 15.9874C24.6764 16.0202 24.8369 16.0844 24.9813 16.1767C25.2733 16.3579 25.5093 16.6166 25.6631 16.9239C25.817 17.2312 25.8826 17.5752 25.8527 17.9175C25.8157 18.809 25.5038 19.6671 24.9599 20.3744C23.0154 22.8837 20.7825 25.1556 18.3071 27.1432V27.1432ZM27.5918 30.5874C27.2813 30.9067 26.8736 31.1136 26.4327 31.1756C25.9918 31.2377 25.5428 31.1514 25.1563 30.9303C24.7495 30.7188 24.4033 30.4072 24.1502 30.0248C23.8972 29.6424 23.7457 29.2019 23.7101 28.7448C23.6686 28.3501 23.7193 27.9512 23.8581 27.5795C23.9969 27.2077 24.22 26.8732 24.51 26.6022C27.2203 24.1023 30.1283 21.8256 33.2054 19.7941C33.2982 19.7352 33.3839 19.6762 33.4857 19.6155C33.7545 19.4215 34.0801 19.3223 34.4115 19.3336C34.7428 19.345 35.0609 19.4661 35.3158 19.678C35.5625 19.887 35.737 20.1683 35.8146 20.4822C35.8922 20.796 35.8688 21.1262 35.7479 21.426C35.3586 22.7227 34.6402 23.8963 33.6625 24.8328C31.6931 26.8004 29.6451 28.6948 27.5953 30.5803L27.5918 30.5874ZM38.1459 32.8033C37.0073 34.7163 35.582 36.4433 33.9196 37.9241C33.2863 38.5347 32.6287 39.1186 31.9466 39.6757C31.5854 39.9754 31.1511 40.1738 30.688 40.2506C30.225 40.3274 29.7498 40.2798 29.3112 40.1127C28.8726 39.9456 28.4862 39.665 28.1916 39.2996C27.897 38.9342 27.7048 38.4971 27.6346 38.033C27.606 37.775 27.6288 37.5138 27.7017 37.2646C27.7747 37.0155 27.8963 36.7832 28.0596 36.5814C30.4893 33.9429 33.2661 31.6466 36.3139 29.7554C36.351 29.741 36.3903 29.7332 36.43 29.7322L36.6085 29.9107C36.1086 30.4464 35.5944 30.957 35.1141 31.5052C34.9697 31.7171 34.8498 31.9447 34.757 32.1837C35.0212 32.2623 35.3301 32.4694 35.5444 32.3962C36.4068 32.1069 37.2549 31.7712 38.1637 31.4141L38.8976 31.1285C38.6226 31.7355 38.4262 32.289 38.1494 32.7961L38.1459 32.8033ZM40.5974 28.277C39.9313 29.1249 39.0966 29.8253 38.1459 30.3339C37.8518 30.4982 37.5501 30.6517 37.2406 30.7946C37.5584 29.5786 37.8762 28.452 38.1459 27.3128L38.1566 27.2664C38.4211 26.1478 38.9242 25.0996 39.6314 24.1936C40.0653 23.624 40.5527 23.8507 41.0509 23.9739C41.5115 24.0864 41.6276 24.4239 41.6472 24.8667C41.7204 26.0902 41.3488 27.2989 40.6009 28.2699L40.5974 28.277ZM44.7754 13.1002C43.7434 16.2249 42.6989 19.3495 41.6919 22.4777C41.5026 23.0651 41.2455 23.1723 40.6902 22.8187L43.3381 11.0469L43.7452 9.23998L45.8878 9.74171L45.4575 11.0469L44.7754 13.1002Z"
              fill="black"/>


    </g>

    <g id="ts">
        <path d="M0 25V50H25H50V25V0H25H0V25Z" fill="#007ACC"/>
        <path d="M11.0572 25.1658L11.0414 27.2134L14.2953 27.2134H17.5493V36.4594V45.7054H19.8509H22.1525V36.4594L22.1525 27.2134H25.4064H28.6604V25.2054C28.6604 24.0943 28.6366 23.1658 28.6048 23.142C28.581 23.1102 24.6207 23.0943 19.8191 23.1023L11.081 23.1261L11.0572 25.1658Z"
              fill="white"/>
        <path d="M40.3444 23.0682C41.6142 23.3857 42.5825 23.9492 43.4714 24.8698C43.9317 25.3619 44.6142 26.2587 44.6698 26.473C44.6856 26.5365 42.511 27.9968 41.1936 28.8143C41.146 28.846 40.9555 28.6397 40.7412 28.3222C40.0983 27.3857 39.4237 26.9809 38.392 26.9095C36.8761 26.8063 35.8999 27.6 35.9079 28.9254C35.9079 29.3143 35.9634 29.5444 36.1221 29.8619C36.4555 30.5524 37.0745 30.9651 39.019 31.8063C42.5983 33.346 44.1301 34.3619 45.0825 35.8063C46.146 37.4174 46.384 39.9889 45.6618 41.9016C44.8682 43.9809 42.8999 45.3936 40.1301 45.8619C39.2729 46.0127 37.2412 45.9889 36.3206 45.8222C34.3126 45.4651 32.4079 44.473 31.2333 43.1714C30.7729 42.6635 29.8761 41.3381 29.9317 41.2428C29.9555 41.2111 30.1618 41.0841 30.392 40.9492C30.6142 40.8222 31.4555 40.3381 32.2491 39.8778L33.6856 39.0444L33.9872 39.4889C34.4079 40.1317 35.3285 41.0127 35.884 41.3063C37.4793 42.1476 39.6698 42.0286 40.7491 41.0603C41.2094 40.6397 41.3999 40.2032 41.3999 39.5603C41.3999 38.9809 41.3285 38.727 41.0269 38.2905C40.638 37.7349 39.8444 37.2666 37.5904 36.2905C35.011 35.1793 33.8999 34.4889 32.884 33.3936C32.2967 32.7587 31.7412 31.7428 31.511 30.8936C31.3206 30.1873 31.2729 28.4174 31.4237 27.7032C31.9555 25.2111 33.8364 23.473 36.5507 22.9571C37.4317 22.7905 39.4793 22.854 40.3444 23.0682Z"
              fill="white"/>

    </g>

    <g id="storybook">
        <path d="M1.54741 45.9756L0.00179642 4.79204C-0.0492491 3.43191 0.99365 2.27921 2.35209 2.19431L37.3816 0.0049703C38.7643 -0.0814501 39.9553 0.969414 40.0417 2.35214C40.045 2.40424 40.0466 2.45642 40.0466 2.50862V47.3854C40.0466 48.7708 38.9235 49.8939 37.538 49.8939C37.5005 49.8939 37.463 49.893 37.4255 49.8914L3.94162 48.3875C2.63756 48.3289 1.59636 47.28 1.54741 45.9756V45.9756Z"
              fill="white"/>
        <path d="M1.54741 45.9756L0.00179642 4.79204C-0.0492491 3.43191 0.99365 2.27921 2.35209 2.19431L37.3816 0.0049703C38.7643 -0.0814501 39.9553 0.969414 40.0417 2.35214C40.045 2.40424 40.0466 2.45642 40.0466 2.50862V47.3854C40.0466 48.7708 38.9235 49.8939 37.538 49.8939C37.5005 49.8939 37.463 49.893 37.4255 49.8914L3.94162 48.3875C2.63756 48.3289 1.59636 47.28 1.54741 45.9756V45.9756Z"
              fill="#FF4785"/>
        <path d="M29.5713 6.13275L29.8105 0.377976L34.6211 0L34.8284 5.9347C34.8356 6.14125 34.674 6.31453 34.4675 6.32174C34.379 6.32483 34.2923 6.29647 34.2228 6.24171L32.3677 4.78032L30.1713 6.44643C30.0066 6.57133 29.7719 6.53911 29.647 6.37445C29.5944 6.30514 29.5676 6.21968 29.5713 6.13275ZM23.419 18.8057C23.419 19.7817 29.9929 19.3139 30.8754 18.6284C30.8754 11.9823 27.3093 8.48983 20.7791 8.48983C14.2489 8.48983 10.5901 12.0366 10.5901 17.3567C10.5901 26.6226 23.0948 26.8 23.0948 31.8541C23.0948 33.2728 22.4001 34.1152 20.8717 34.1152C18.8802 34.1152 18.0929 33.0981 18.1855 29.64C18.1855 28.8898 10.5901 28.656 10.3586 29.64C9.76889 38.0202 14.9899 40.4374 20.9643 40.4374C26.7535 40.4374 31.2923 37.3516 31.2923 31.7654C31.2923 21.8345 18.6024 22.1005 18.6024 17.1794C18.6024 15.1843 20.0844 14.9183 20.9643 14.9183C21.8906 14.9183 23.5579 15.0816 23.419 18.8057Z"
              fill="white"/>

    </g>

    <g id="axios">
        <path d="M24.7291 1.39355L22.0146 3.60492H23.7874V10.7931L24.7291 10.0346V1.39355Z" fill="#5A29E4"/>
        <path d="M25.5117 9.39247L28.2739 7.12563H26.4516V0.101807L25.5117 0.756152V9.39247Z" fill="#5A29E4"/>
        <path d="M47.9344 2.68474C48.2474 2.84747 48.4727 2.98517 48.6104 3.09784L49.5868 1.23889C49.0986 0.938457 48.5103 0.669318 47.8218 0.431473C47.1458 0.19363 46.4135 0.074707 45.6248 0.074707C44.8737 0.074707 44.179 0.199888 43.5406 0.45025C42.9146 0.700613 42.4139 1.0699 42.0384 1.5581C41.6754 2.04631 41.4938 2.65344 41.4938 3.37949C41.4938 4.19319 41.7505 4.8191 42.2637 5.25723C42.7895 5.68285 43.5906 6.03336 44.6672 6.30876C45.5309 6.53408 46.2257 6.74063 46.7515 6.9284C47.2897 7.10366 47.5589 7.39783 47.5589 7.81093C47.5589 8.42432 46.983 8.73101 45.8314 8.73101C45.2555 8.73101 44.711 8.66216 44.1978 8.52447C43.6845 8.38677 43.2339 8.21777 42.8458 8.01748C42.4703 7.81719 42.2011 7.63568 42.0384 7.47294L41.0244 9.44455C41.6754 9.85765 42.4202 10.1831 43.2589 10.421C44.0976 10.6588 44.9426 10.7777 45.7938 10.7777C46.5324 10.7777 47.2209 10.6776 47.8593 10.4773C48.4977 10.2645 49.011 9.9265 49.399 9.46332C49.7996 8.98764 49.9999 8.36169 49.9999 7.58557C49.9999 6.94714 49.8497 6.43394 49.5493 6.04587C49.2613 5.64529 48.842 5.32608 48.2912 5.08824C47.7529 4.85039 47.1145 4.63758 46.3759 4.44981C45.5372 4.24952 44.8988 4.06801 44.4606 3.90527C44.035 3.74252 43.8222 3.46712 43.8222 3.07906C43.8222 2.4156 44.4106 2.08387 45.5873 2.08387C46.0254 2.08387 46.451 2.14646 46.8641 2.27164C47.2772 2.3843 47.634 2.522 47.9344 2.68474Z"
              fill="#5A29E4"/>
        <path d="M34.058 10.7214C33.2318 10.7214 32.4807 10.5775 31.8047 10.2895C31.1288 9.98911 30.5463 9.58853 30.0581 9.0878C29.5699 8.57456 29.1943 7.99873 28.9314 7.3603C28.6689 6.72188 28.5371 6.06467 28.5371 5.3887C28.5371 4.7002 28.6748 4.03674 28.9502 3.39829C29.2256 2.75987 29.6141 2.19656 30.1148 1.70835C30.6155 1.20762 31.2035 0.813299 31.8795 0.525382C32.5554 0.237466 33.294 0.0935059 34.0952 0.0935059C34.9214 0.0935059 35.6728 0.249984 36.3488 0.562936C37.0248 0.863371 37.6006 1.27021 38.0763 1.78345C38.5645 2.28418 38.9397 2.85375 39.2026 3.49218C39.4654 4.13062 39.5973 4.78153 39.5973 5.44499C39.5973 6.13349 39.4596 6.79699 39.1842 7.43541C38.9088 8.06132 38.5203 8.62463 38.0196 9.12536C37.5314 9.61357 36.9497 10.0016 36.2737 10.2895C35.5977 10.5775 34.8592 10.7214 34.058 10.7214ZM30.8279 5.40747C30.8279 5.97079 30.9598 6.50907 31.2226 7.02231C31.4851 7.52304 31.8544 7.92988 32.3301 8.24283C32.8183 8.55578 33.4004 8.71226 34.0764 8.71226C34.7649 8.71226 35.347 8.54952 35.8227 8.22405C36.2987 7.88606 36.6614 7.46671 36.9117 6.96594C37.1621 6.4527 37.2877 5.92698 37.2877 5.3887C37.2877 4.82538 37.1562 4.29332 36.8934 3.79261C36.6305 3.29189 36.2549 2.89131 35.7663 2.59087C35.2906 2.27792 34.7215 2.12144 34.058 2.12144C33.3695 2.12144 32.7808 2.28418 32.2925 2.60965C31.8169 2.93512 31.4538 3.34822 31.2035 3.84895C30.9531 4.34969 30.8279 4.86919 30.8279 5.40747Z"
              fill="#5A29E4"/>
        <path d="M0 10.6463L4.58164 0.14978H6.44058L11.0034 10.6463H8.59996L7.54843 8.18644H3.47378L2.42226 10.6463H0ZM5.5205 2.91003L3.98077 6.21483H7.0039L5.5205 2.91003Z"
              fill="#5A29E4"/>
        <path d="M13.9971 0.14978L16.8888 3.86766L19.7805 0.14978H22.2403L18.0906 5.46375L22.1089 10.6463H19.6491L16.8888 7.07858L14.1474 10.6463H11.65L15.6871 5.46375L11.5186 0.14978H13.9971Z"
              fill="#5A29E4"/>
    </g>


    <!--    social-->

    <g id="linkedin">
        <rect width="35" height="35" rx="3" fill="white"/>
        <path d="M6.92708 2.73438C5.21558 2.73438 3.82812 4.12183 3.82812 5.83333C3.82812 7.54484 5.21558 8.93229 6.92708 8.93229C8.63859 8.93229 10.026 7.54484 10.026 5.83333C10.026 4.12183 8.63859 2.73438 6.92708 2.73438Z"
              fill="black"/>
        <path d="M4.01042 11.4844C3.90974 11.4844 3.82812 11.566 3.82812 11.6667V30.625C3.82812 30.7257 3.90974 30.8073 4.01042 30.8073H9.84375C9.94443 30.8073 10.026 30.7257 10.026 30.625V11.6667C10.026 11.566 9.94443 11.4844 9.84375 11.4844H4.01042Z"
              fill="black"/>
        <path d="M13.4896 11.4844C13.3889 11.4844 13.3073 11.566 13.3073 11.6667V30.625C13.3073 30.7257 13.3889 30.8073 13.4896 30.8073H19.3229C19.4236 30.8073 19.5052 30.7257 19.5052 30.625V20.4167C19.5052 19.6915 19.7933 18.996 20.3061 18.4832C20.8189 17.9704 21.5144 17.6823 22.2396 17.6823C22.9648 17.6823 23.6603 17.9704 24.1731 18.4832C24.6859 18.996 24.974 19.6915 24.974 20.4167V30.625C24.974 30.7257 25.0556 30.8073 25.1562 30.8073H30.9896C31.0903 30.8073 31.1719 30.7257 31.1719 30.625V18.0545C31.1719 14.5155 28.0939 11.7469 24.5727 12.067C23.4867 12.1657 22.4131 12.4357 21.4105 12.8653L19.5052 13.6819V11.6667C19.5052 11.566 19.4236 11.4844 19.3229 11.4844H13.4896Z"
              fill="black"/>
    </g>

    <g id="telegram">
        <path d="M36.7527 0.38643L1.31463 14.2583C-0.111463 14.9043 -0.593806 16.1979 0.969943 16.9L10.0613 19.8328L32.0432 6.04268C33.2434 5.17696 34.4722 5.4078 33.4148 6.36015L14.5354 23.712L13.9424 31.0553C14.4917 32.1891 15.4974 32.1944 16.139 31.6308L21.3623 26.6139L30.308 33.4137C32.3857 34.6623 33.5163 33.8565 33.9633 31.568L39.8309 3.36528C40.4401 0.548323 39.4012 -0.692859 36.7527 0.38643Z"
              fill="white"/>
    </g>

    <g id="email">
        <path d="M0.13125 4.64667C0.395898 3.46865 1.04647 2.41683 1.97642 1.66349C2.90637 0.910143 4.06057 0.499919 5.25 0.5H36.75C37.9394 0.499919 39.0936 0.910143 40.0236 1.66349C40.9535 2.41683 41.6041 3.46865 41.8687 4.64667L21 17.604L0.13125 4.64667ZM0 7.692V26.636L15.2329 17.148L0 7.692ZM17.7476 18.7133L0.501375 29.452C0.927482 30.3648 1.60001 31.1358 2.44068 31.6754C3.28135 32.215 4.25558 32.501 5.25 32.5H36.75C37.7443 32.5002 38.7181 32.2136 39.5583 31.6736C40.3985 31.1335 41.0705 30.3622 41.496 29.4493L24.2498 18.7107L21 20.7293L17.7476 18.7107V18.7133ZM26.7671 17.1507L42 26.636V7.692L26.7671 17.148V17.1507Z"
              fill="white"/>
    </g>


    <g id="github">
        <path d="M15 0C6.7125 0 0 6.7125 0 15C0 21.6375 4.29375 27.2437 10.2563 29.2313C11.0063 29.3625 11.2875 28.9125 11.2875 28.5188C11.2875 28.1625 11.2688 26.9813 11.2688 25.725C7.5 26.4188 6.525 24.8062 6.225 23.9625C6.05625 23.5312 5.325 22.2 4.6875 21.8438C4.1625 21.5625 3.4125 20.8687 4.66875 20.85C5.85 20.8313 6.69375 21.9375 6.975 22.3875C8.325 24.6562 10.4812 24.0187 11.3438 23.625C11.475 22.65 11.8688 21.9937 12.3 21.6187C8.9625 21.2437 5.475 19.95 5.475 14.2125C5.475 12.5813 6.05625 11.2313 7.0125 10.1813C6.8625 9.80625 6.3375 8.26875 7.1625 6.20625C7.1625 6.20625 8.41875 5.8125 11.2875 7.74375C12.4875 7.40625 13.7625 7.2375 15.0375 7.2375C16.3125 7.2375 17.5875 7.40625 18.7875 7.74375C21.6562 5.79375 22.9125 6.20625 22.9125 6.20625C23.7375 8.26875 23.2125 9.80625 23.0625 10.1813C24.0188 11.2313 24.6 12.5625 24.6 14.2125C24.6 19.9688 21.0938 21.2437 17.7563 21.6187C18.3 22.0875 18.7688 22.9875 18.7688 24.3937C18.7688 26.4 18.75 28.0125 18.75 28.5188C18.75 28.9125 19.0312 29.3813 19.7812 29.2313C22.759 28.2259 25.3465 26.3121 27.1796 23.7592C29.0127 21.2063 29.9991 18.1429 30 15C30 6.7125 23.2875 0 15 0Z"
              fill="white"/>

    </g>
</svg>
