<svg width="50" height="45" viewBox="0 0 50 45" fill="none" xmlns="http://www.w3.org/2000/svg">
    <g id="react">
        <path d="M41.1086 14.4703C40.5766 14.287 40.04 14.1173 39.4994 13.9612C39.5902 13.5888 39.6738 13.2209 39.748 12.8595C40.9663 6.92408 40.1698 2.14242 37.4496 0.568064C34.8414 -0.941213 30.5759 0.632551 26.2681 4.39535C25.8435 4.76686 25.4284 5.14907 25.023 5.54162C24.7517 5.28059 24.4756 5.02462 24.1948 4.77385C19.6799 0.750549 15.1545 -0.945133 12.4372 0.633727C9.83134 2.14771 9.05972 6.6428 10.1565 12.2679C10.2656 12.825 10.3888 13.3792 10.526 13.9301C9.88544 14.1127 9.26732 14.3072 8.67577 14.5142C3.38246 16.3665 0.0020752 19.2692 0.0020752 22.2801C0.0020752 25.3898 3.63107 28.5089 9.14429 30.4002C9.59125 30.5529 10.0419 30.6944 10.4959 30.8245C10.3485 31.4178 10.2176 32.0151 10.1034 32.6157C9.05777 38.1432 9.8743 42.532 12.4731 44.0364C15.1573 45.59 19.6624 43.9933 24.0489 40.1446C24.4046 39.8317 24.7525 39.51 25.0922 39.1797C25.5311 39.6047 25.9818 40.0174 26.4436 40.4173C30.6929 44.087 34.8894 45.5688 37.4857 44.0603C40.1673 42.5022 41.0389 37.7874 39.9074 32.0512C39.8182 31.6018 39.7183 31.1546 39.6076 30.7101C39.924 30.616 40.2345 30.5192 40.5372 30.4184C46.2687 28.5126 49.9979 25.4313 49.9979 22.2801C49.9979 19.2582 46.5084 16.3359 41.1086 14.4703ZM39.8656 28.3838C39.5922 28.4746 39.3117 28.5622 39.0258 28.6475C38.393 26.637 37.5392 24.4993 36.4942 22.2905C37.4914 20.1344 38.3124 18.0239 38.9274 16.0266C39.4388 16.1752 39.9351 16.3318 40.4136 16.497C45.0401 18.0957 47.8622 20.459 47.8622 22.2801C47.8622 24.2198 44.8144 26.7379 39.8656 28.3838ZM37.8122 32.4675C38.3126 35.0039 38.3839 37.2972 38.0524 39.0901C37.7548 40.7011 37.156 41.775 36.4155 42.2053C34.84 43.1206 31.4706 41.9309 27.8367 38.7924C27.4071 38.4206 26.9879 38.0369 26.5796 37.6418C27.9884 36.0955 29.3963 34.2978 30.7704 32.3013C33.1874 32.0861 35.4708 31.734 37.5415 31.2536C37.6413 31.656 37.7315 32.0608 37.8122 32.4675ZM17.0468 42.0471C15.5074 42.5926 14.2814 42.6083 13.5402 42.1794C11.9632 41.2666 11.3076 37.7425 12.2018 33.0155C12.3081 32.457 12.4299 31.9015 12.5669 31.3497C14.6147 31.8044 16.8815 32.1313 19.3042 32.3285C20.6877 34.2822 22.1362 36.0778 23.596 37.6502C23.2858 37.9515 22.9682 38.2451 22.6436 38.5307C20.7037 40.2324 18.7599 41.4399 17.0468 42.0471ZM9.83524 28.3719C7.39736 27.5355 5.38405 26.4486 4.00409 25.2626C2.76396 24.1969 2.13803 23.1386 2.13803 22.2801C2.13803 20.4529 4.85206 18.1223 9.37884 16.5384C9.92821 16.3463 10.5032 16.165 11.0998 15.9948C11.7255 18.0373 12.5462 20.1728 13.5365 22.3322C12.5333 24.5236 11.7009 26.6932 11.0691 28.7598C10.6547 28.6406 10.2433 28.5113 9.83524 28.3719ZM12.2526 11.8561C11.3131 7.03678 11.937 3.40139 13.5074 2.48896C15.1799 1.51714 18.8784 2.90274 22.7768 6.37682C23.031 6.60387 23.281 6.83553 23.5269 7.07167C22.0743 8.6372 20.639 10.4195 19.2679 12.3616C16.9165 12.5803 14.6657 12.9316 12.5963 13.4022C12.4688 12.8899 12.3542 12.3744 12.2526 11.8563V11.8561ZM33.8186 17.2009C33.3298 16.3535 32.8229 15.5168 32.2982 14.6914C33.8934 14.8938 35.4218 15.1626 36.857 15.4911C36.4262 16.8773 35.8891 18.3264 35.257 19.8121C34.7949 18.9322 34.3153 18.0616 33.8186 17.2009ZM25.024 8.60369C26.0091 9.67488 26.9957 10.8707 27.9662 12.1683C25.9976 12.075 24.0257 12.0746 22.0571 12.1671C23.0285 10.8815 24.0235 9.68723 25.024 8.60369ZM16.173 17.2156C15.6825 18.0694 15.2119 18.9345 14.7616 19.8104C14.1398 18.3299 13.6076 16.8741 13.1731 15.4683C14.5995 15.1481 16.1207 14.8862 17.7057 14.6874C17.1751 15.5179 16.6641 16.3608 16.173 17.2154V17.2156ZM17.7512 30.0252C16.1136 29.8418 14.5696 29.5934 13.1436 29.2818C13.5849 27.8509 14.1288 26.3641 14.7641 24.8519C15.2162 25.7284 15.6888 26.5941 16.1814 27.4483C16.688 28.3264 17.2126 29.1865 17.7512 30.0252ZM25.083 36.1074C24.0706 35.0113 23.0609 33.7986 22.0749 32.4944C23.0322 32.532 24.0081 32.5512 25 32.5512C26.0191 32.5512 27.0264 32.5283 28.0179 32.484C27.0444 33.8117 26.0614 35.0262 25.083 36.1074ZM35.2771 24.7747C35.9454 26.3036 36.5086 27.7825 36.9558 29.1888C35.5064 29.5209 33.9413 29.7882 32.2922 29.9868C32.8206 29.146 33.3323 28.2948 33.827 27.4336C34.33 26.5582 34.8134 25.6717 35.2771 24.7747ZM31.977 26.3626C31.2196 27.683 30.4197 28.9783 29.5785 30.2465C28.0547 30.3548 26.5276 30.4086 25 30.4078C23.4441 30.4078 21.9307 30.3592 20.4734 30.2644C19.6103 28.9991 18.7951 27.7015 18.0297 26.3743H18.0299C17.2681 25.0542 16.5565 23.7056 15.8967 22.3312C16.5548 20.9566 17.2642 19.6073 18.0234 18.2862L18.0232 18.2864C18.7822 16.9649 19.5908 15.6729 20.4475 14.413C21.9342 14.3001 23.4589 14.2413 24.9998 14.2413H25C26.5479 14.2413 28.0746 14.3007 29.561 14.4144C30.4089 15.6724 31.2124 16.96 31.9699 18.2748C32.7317 19.593 33.4505 20.9357 34.1252 22.3009C33.4574 23.6799 32.7409 25.0347 31.977 26.3626ZM36.3829 2.42506C38.0569 3.39413 38.708 7.30198 37.6562 12.4267C37.589 12.7536 37.5136 13.0866 37.4316 13.4244C35.3572 12.9437 33.1048 12.5864 30.7466 12.3643C29.3729 10.4009 27.9494 8.61584 26.5204 7.0705C26.8949 6.70817 27.2783 6.35525 27.6703 6.01204C31.3614 2.78827 34.8111 1.51538 36.3829 2.42506ZM25 17.7993C27.4656 17.7993 29.4645 19.8055 29.4645 22.2801C29.4645 24.7547 27.4656 26.7609 25 26.7609C22.5344 26.7609 20.5355 24.7547 20.5355 22.2801C20.5355 19.8055 22.5344 17.7993 25 17.7993Z"
              fill="#00D8FF"/>
    </g>
</svg>
