<svg width="50" height="45" viewBox="0 0 50 45" fill="none" xmlns="http://www.w3.org/2000/svg">
    <g id="send">
        <path d="M19.8889 1.5H2.11111C1.49746 1.5 1 1.99746 1 2.61111V15.9444C1 16.5581 1.49746 17.0556 2.11111 17.0556H19.8889C20.5025 17.0556 21 16.5581 21 15.9444V2.61111C21 1.99746 20.5025 1.5 19.8889 1.5Z"
              stroke="#0C070A" stroke-width="2" stroke-linecap="round"/>
        <path d="M1 3.16675L11 9.27786L21 3.16675" stroke="#0C070A" stroke-width="2" stroke-linecap="round"/>

    </g>

    <g id="save">
        <path d="M9.66868 14.55C9.68977 14.5709 9.71279 14.5897 9.73743 14.6062L9.77493 14.6266C9.80309 14.6446 9.83434 14.6573 9.86712 14.6641L9.90618 14.675C9.96602 14.6868 10.0276 14.6868 10.0874 14.675L10.1281 14.6625L10.1749 14.6484C10.191 14.641 10.2067 14.6326 10.2218 14.6234L10.2546 14.6047C10.2805 14.5873 10.3046 14.5674 10.3265 14.5453L14.5312 10.3453C14.5836 10.3045 14.6268 10.253 14.6578 10.1942C14.6889 10.1355 14.707 10.0708 14.7112 10.0044C14.7153 9.93811 14.7053 9.87167 14.6817 9.80951C14.6582 9.74735 14.6218 9.69091 14.5748 9.64391C14.5278 9.59692 14.4713 9.56046 14.4092 9.53694C14.347 9.51343 14.2806 9.5034 14.2142 9.50752C14.1479 9.51164 14.0832 9.52982 14.0244 9.56085C13.9657 9.59188 13.9142 9.63505 13.8734 9.6875L10.4687 13.0875V0.46875C10.4687 0.34443 10.4193 0.225201 10.3314 0.137294C10.2435 0.049386 10.1243 0 9.99993 0C9.87561 0 9.75638 0.049386 9.66848 0.137294C9.58057 0.225201 9.53118 0.34443 9.53118 0.46875V13.0875L6.12649 9.6875C6.03631 9.61732 5.9236 9.58251 5.80955 9.58959C5.6955 9.59668 5.58797 9.64519 5.50717 9.72599C5.42637 9.80679 5.37786 9.91432 5.37078 10.0284C5.36369 10.1424 5.39851 10.2551 5.46868 10.3453L9.66868 14.55Z"
              fill="#9EFF00"/>
        <path d="M19.5312 13.75C19.4069 13.75 19.2877 13.7994 19.1998 13.8873C19.1119 13.9752 19.0625 14.0944 19.0625 14.2188V17.6562C19.0625 18.0292 18.9143 18.3869 18.6506 18.6506C18.3869 18.9143 18.0292 19.0625 17.6562 19.0625H2.34375C1.97079 19.0625 1.6131 18.9143 1.34938 18.6506C1.08566 18.3869 0.9375 18.0292 0.9375 17.6562V14.2188C0.9375 14.0944 0.888114 13.9752 0.800206 13.8873C0.712299 13.7994 0.59307 13.75 0.46875 13.75C0.34443 13.75 0.225201 13.7994 0.137294 13.8873C0.049386 13.9752 0 14.0944 0 14.2188L0 17.6562C0 18.2779 0.24693 18.874 0.686468 19.3135C1.12601 19.7531 1.72215 20 2.34375 20H17.6562C18.2779 20 18.874 19.7531 19.3135 19.3135C19.7531 18.874 20 18.2779 20 17.6562V14.2188C20 14.0944 19.9506 13.9752 19.8627 13.8873C19.7748 13.7994 19.6556 13.75 19.5312 13.75Z"
              fill="#9EFF00"/>
    </g>

    <g id="arrowTop">
        <path d="M20 0C31.0457 0 40 8.9543 40 20C40 31.0457 31.0457 40 20 40C8.9543 40 0 31.0457 0 20C0 8.9543 8.9543 0 20 0ZM20 2.5C10.335 2.5 2.5 10.335 2.5 20C2.5 29.665 10.335 37.5 20 37.5C29.665 37.5 37.5 29.665 37.5 20C37.5 10.335 29.665 2.5 20 2.5ZM20.0895 11.5717L28.9283 20.4105L27.1605 22.1783L21.3033 16.3204V29.375H18.8033V16.3404L12.9645 22.1783L11.1967 20.4105L20.0355 11.5717L20.0633 11.5979L20.0895 11.5717Z"
              fill="#9EFF00"/>

    </g>


    <!--   skills-->

    <g id="react">
        <path d="M41.1086 14.4703C40.5766 14.287 40.04 14.1173 39.4994 13.9612C39.5902 13.5888 39.6738 13.2209 39.748 12.8595C40.9663 6.92408 40.1698 2.14242 37.4496 0.568064C34.8414 -0.941213 30.5759 0.632551 26.2681 4.39535C25.8435 4.76686 25.4284 5.14907 25.023 5.54162C24.7517 5.28059 24.4756 5.02462 24.1948 4.77385C19.6799 0.750549 15.1545 -0.945133 12.4372 0.633727C9.83134 2.14771 9.05972 6.6428 10.1565 12.2679C10.2656 12.825 10.3888 13.3792 10.526 13.9301C9.88544 14.1127 9.26732 14.3072 8.67577 14.5142C3.38246 16.3665 0.0020752 19.2692 0.0020752 22.2801C0.0020752 25.3898 3.63107 28.5089 9.14429 30.4002C9.59125 30.5529 10.0419 30.6944 10.4959 30.8245C10.3485 31.4178 10.2176 32.0151 10.1034 32.6157C9.05777 38.1432 9.8743 42.532 12.4731 44.0364C15.1573 45.59 19.6624 43.9933 24.0489 40.1446C24.4046 39.8317 24.7525 39.51 25.0922 39.1797C25.5311 39.6047 25.9818 40.0174 26.4436 40.4173C30.6929 44.087 34.8894 45.5688 37.4857 44.0603C40.1673 42.5022 41.0389 37.7874 39.9074 32.0512C39.8182 31.6018 39.7183 31.1546 39.6076 30.7101C39.924 30.616 40.2345 30.5192 40.5372 30.4184C46.2687 28.5126 49.9979 25.4313 49.9979 22.2801C49.9979 19.2582 46.5084 16.3359 41.1086 14.4703ZM39.8656 28.3838C39.5922 28.4746 39.3117 28.5622 39.0258 28.6475C38.393 26.637 37.5392 24.4993 36.4942 22.2905C37.4914 20.1344 38.3124 18.0239 38.9274 16.0266C39.4388 16.1752 39.9351 16.3318 40.4136 16.497C45.0401 18.0957 47.8622 20.459 47.8622 22.2801C47.8622 24.2198 44.8144 26.7379 39.8656 28.3838ZM37.8122 32.4675C38.3126 35.0039 38.3839 37.2972 38.0524 39.0901C37.7548 40.7011 37.156 41.775 36.4155 42.2053C34.84 43.1206 31.4706 41.9309 27.8367 38.7924C27.4071 38.4206 26.9879 38.0369 26.5796 37.6418C27.9884 36.0955 29.3963 34.2978 30.7704 32.3013C33.1874 32.0861 35.4708 31.734 37.5415 31.2536C37.6413 31.656 37.7315 32.0608 37.8122 32.4675ZM17.0468 42.0471C15.5074 42.5926 14.2814 42.6083 13.5402 42.1794C11.9632 41.2666 11.3076 37.7425 12.2018 33.0155C12.3081 32.457 12.4299 31.9015 12.5669 31.3497C14.6147 31.8044 16.8815 32.1313 19.3042 32.3285C20.6877 34.2822 22.1362 36.0778 23.596 37.6502C23.2858 37.9515 22.9682 38.2451 22.6436 38.5307C20.7037 40.2324 18.7599 41.4399 17.0468 42.0471ZM9.83524 28.3719C7.39736 27.5355 5.38405 26.4486 4.00409 25.2626C2.76396 24.1969 2.13803 23.1386 2.13803 22.2801C2.13803 20.4529 4.85206 18.1223 9.37884 16.5384C9.92821 16.3463 10.5032 16.165 11.0998 15.9948C11.7255 18.0373 12.5462 20.1728 13.5365 22.3322C12.5333 24.5236 11.7009 26.6932 11.0691 28.7598C10.6547 28.6406 10.2433 28.5113 9.83524 28.3719ZM12.2526 11.8561C11.3131 7.03678 11.937 3.40139 13.5074 2.48896C15.1799 1.51714 18.8784 2.90274 22.7768 6.37682C23.031 6.60387 23.281 6.83553 23.5269 7.07167C22.0743 8.6372 20.639 10.4195 19.2679 12.3616C16.9165 12.5803 14.6657 12.9316 12.5963 13.4022C12.4688 12.8899 12.3542 12.3744 12.2526 11.8563V11.8561ZM33.8186 17.2009C33.3298 16.3535 32.8229 15.5168 32.2982 14.6914C33.8934 14.8938 35.4218 15.1626 36.857 15.4911C36.4262 16.8773 35.8891 18.3264 35.257 19.8121C34.7949 18.9322 34.3153 18.0616 33.8186 17.2009ZM25.024 8.60369C26.0091 9.67488 26.9957 10.8707 27.9662 12.1683C25.9976 12.075 24.0257 12.0746 22.0571 12.1671C23.0285 10.8815 24.0235 9.68723 25.024 8.60369ZM16.173 17.2156C15.6825 18.0694 15.2119 18.9345 14.7616 19.8104C14.1398 18.3299 13.6076 16.8741 13.1731 15.4683C14.5995 15.1481 16.1207 14.8862 17.7057 14.6874C17.1751 15.5179 16.6641 16.3608 16.173 17.2154V17.2156ZM17.7512 30.0252C16.1136 29.8418 14.5696 29.5934 13.1436 29.2818C13.5849 27.8509 14.1288 26.3641 14.7641 24.8519C15.2162 25.7284 15.6888 26.5941 16.1814 27.4483C16.688 28.3264 17.2126 29.1865 17.7512 30.0252ZM25.083 36.1074C24.0706 35.0113 23.0609 33.7986 22.0749 32.4944C23.0322 32.532 24.0081 32.5512 25 32.5512C26.0191 32.5512 27.0264 32.5283 28.0179 32.484C27.0444 33.8117 26.0614 35.0262 25.083 36.1074ZM35.2771 24.7747C35.9454 26.3036 36.5086 27.7825 36.9558 29.1888C35.5064 29.5209 33.9413 29.7882 32.2922 29.9868C32.8206 29.146 33.3323 28.2948 33.827 27.4336C34.33 26.5582 34.8134 25.6717 35.2771 24.7747ZM31.977 26.3626C31.2196 27.683 30.4197 28.9783 29.5785 30.2465C28.0547 30.3548 26.5276 30.4086 25 30.4078C23.4441 30.4078 21.9307 30.3592 20.4734 30.2644C19.6103 28.9991 18.7951 27.7015 18.0297 26.3743H18.0299C17.2681 25.0542 16.5565 23.7056 15.8967 22.3312C16.5548 20.9566 17.2642 19.6073 18.0234 18.2862L18.0232 18.2864C18.7822 16.9649 19.5908 15.6729 20.4475 14.413C21.9342 14.3001 23.4589 14.2413 24.9998 14.2413H25C26.5479 14.2413 28.0746 14.3007 29.561 14.4144C30.4089 15.6724 31.2124 16.96 31.9699 18.2748C32.7317 19.593 33.4505 20.9357 34.1252 22.3009C33.4574 23.6799 32.7409 25.0347 31.977 26.3626ZM36.3829 2.42506C38.0569 3.39413 38.708 7.30198 37.6562 12.4267C37.589 12.7536 37.5136 13.0866 37.4316 13.4244C35.3572 12.9437 33.1048 12.5864 30.7466 12.3643C29.3729 10.4009 27.9494 8.61584 26.5204 7.0705C26.8949 6.70817 27.2783 6.35525 27.6703 6.01204C31.3614 2.78827 34.8111 1.51538 36.3829 2.42506ZM25 17.7993C27.4656 17.7993 29.4645 19.8055 29.4645 22.2801C29.4645 24.7547 27.4656 26.7609 25 26.7609C22.5344 26.7609 20.5355 24.7547 20.5355 22.2801C20.5355 19.8055 22.5344 17.7993 25 17.7993Z"
              fill="#00D8FF"/>
    </g>

    <g id="redux">
        <path d="M34.6447 33.151C36.4898 32.96 37.8896 31.3693 37.826 29.4603C37.7625 27.5516 36.1717 26.0244 34.2629 26.0244H34.1357C32.1631 26.0881 30.6361 27.7424 30.6998 29.7148C30.7635 30.6693 31.1451 31.4965 31.7178 32.0691C29.5545 36.3324 26.2459 39.4502 21.283 42.059C17.9107 43.8406 14.4113 44.4769 10.9119 44.0316C8.04863 43.6498 5.82168 42.3773 4.42168 40.2773C2.38574 37.1596 2.19492 33.7871 3.91289 30.4148C5.12187 27.9969 7.03047 26.2152 8.23945 25.3244C7.98496 24.4973 7.60312 23.0975 7.4123 22.0795C-1.81367 28.7605 -0.859182 37.7959 1.94043 42.059C4.04004 45.2406 8.30312 47.2131 13.0115 47.2131C14.284 47.2131 15.5564 47.0857 16.8291 46.7678C24.9734 45.1769 31.1453 40.341 34.6447 33.151ZM45.8432 25.2609C41.0074 19.5978 33.8812 16.4801 25.7369 16.4801H24.7189C24.1463 15.3348 22.9373 14.5711 21.6012 14.5711H21.4738C19.5016 14.6348 17.9746 16.2891 18.0381 18.2617C18.1018 20.1705 19.6924 21.6977 21.6012 21.6977H21.7283C23.1281 21.634 24.3371 20.7432 24.8461 19.5342H25.9914C30.8271 19.5342 35.4082 20.934 39.5441 23.6701C42.7254 25.7699 45.016 28.5061 46.2885 31.8146C47.3701 34.4871 47.3064 37.0959 46.1611 39.323C44.3797 42.6953 41.3892 44.5406 37.4443 44.5406C34.8992 44.5406 32.4814 43.7769 31.2088 43.2043C30.509 43.8406 29.2363 44.8586 28.3455 45.4951C31.0816 46.7676 33.8812 47.4676 36.5535 47.4676C42.6617 47.4676 47.1793 44.0951 48.8973 40.7228C50.7424 37.0322 50.615 30.6693 45.8432 25.2609ZM13.5205 34.2324C13.5842 36.1414 15.1748 37.6684 17.0836 37.6684H17.2109C19.1834 37.6049 20.7103 35.9504 20.6467 33.9779C20.5832 32.0689 18.9924 30.542 17.0836 30.542H16.9564C16.8291 30.542 16.6381 30.542 16.5111 30.6055C13.9023 26.2787 12.8207 21.5703 13.2025 16.4799C13.4568 12.6621 14.7295 9.35332 16.9564 6.61719C18.8016 4.26289 22.3646 3.11758 24.7826 3.0541C31.5269 2.92676 34.39 11.3258 34.581 14.6982C35.4082 14.8891 36.808 15.3346 37.7625 15.6527C36.9988 5.34492 30.6361 0 24.5281 0C18.8016 0 13.5205 4.13594 11.4207 10.2443C8.49394 18.3889 10.4027 26.2152 13.9658 32.3873C13.6478 32.8326 13.4568 33.5326 13.5205 34.2326V34.2324Z"
              fill="#764ABC"/>
    </g>

    <g id="js">
        <path d="M0 0H50V50H0V0Z" fill="#F5DE19"/>
        <path d="M32.6545 37.9774C33.0687 38.8187 33.7122 39.5258 34.5108 40.0173C35.3094 40.5088 36.2307 40.7646 37.1684 40.7552C39.0607 40.7552 40.2708 39.809 40.2708 38.4982C40.2708 36.9357 39.0278 36.3767 36.9444 35.4652L35.8021 34.9756C32.5034 33.5711 30.3159 31.8125 30.3159 28.0937C30.3159 24.6684 32.9201 22.059 37.0052 22.059C38.3276 21.9635 39.6488 22.2595 40.8041 22.91C41.9594 23.5605 42.8976 24.5367 43.5017 25.717L39.9305 28C39.6979 27.4147 39.2929 26.9141 38.7692 26.5643C38.2455 26.2146 37.6279 26.0323 36.9982 26.0416C36.7235 26.0141 36.4461 26.0441 36.1836 26.1298C35.9211 26.2154 35.6794 26.3548 35.4737 26.539C35.2681 26.7233 35.1031 26.9483 34.9893 27.1999C34.8754 27.4514 34.8152 27.7239 34.8125 28C34.8125 29.3697 35.6614 29.9253 37.6215 30.7777L38.7639 31.2673C42.6458 32.9322 44.8403 34.6284 44.8403 38.4427C44.8403 42.5555 41.6093 44.809 37.2708 44.809C35.5804 44.9167 33.8949 44.5329 32.4177 43.7039C30.9406 42.8749 29.7349 41.6361 28.9462 40.1371L32.6545 37.9774ZM16.5173 38.3732C17.2343 39.6458 17.8871 40.7222 19.4566 40.7222C20.9566 40.7222 21.9045 40.1354 21.9045 37.8524V22.3194H26.4722V37.9131C26.4722 42.6423 23.6944 44.7951 19.651 44.7951C18.2218 44.8732 16.8023 44.517 15.5793 43.7734C14.3563 43.0297 13.3869 41.9333 12.7986 40.6284L16.5173 38.3732Z"
              fill="black"/>
    </g>

    <g id="git">
        <path d="M49.057 22.7725L27.2266 0.943164C25.9701 -0.314063 23.9311 -0.314063 22.673 0.943164L18.1398 5.47637L23.8904 11.227C25.2268 10.7754 26.7592 11.0783 27.8244 12.1436C28.8947 13.2156 29.1955 14.7611 28.733 16.1018L34.275 21.6439C35.6158 21.182 37.1629 21.4809 38.2338 22.5535C39.7305 24.0496 39.7305 26.4744 38.2338 27.9715C36.7367 29.4688 34.3119 29.4688 32.8141 27.9715C31.6883 26.8445 31.4102 25.1912 31.9801 23.8043L26.8117 18.6359L26.8111 32.2369C27.1858 32.4222 27.528 32.6669 27.8244 32.9615C29.3211 34.4576 29.3211 36.8826 27.8244 38.3809C26.3273 39.8773 23.9014 39.8773 22.4064 38.3809C20.9098 36.8826 20.9098 34.4578 22.4064 32.9617C22.7651 32.6029 23.1914 32.3187 23.6605 32.1256V18.3979C23.1907 18.206 22.7642 17.9217 22.4064 17.5617C21.2725 16.4293 20.9998 14.7654 21.5809 13.373L15.9121 7.70371L0.943359 22.6715C-0.314453 23.9299 -0.314453 25.9691 0.943359 27.2266L22.7742 49.0563C24.0311 50.3137 26.0697 50.3137 27.3281 49.0563L49.0568 27.3279C50.3143 26.0701 50.3143 24.0297 49.0568 22.7725"
              fill="#DE4C36"/>
    </g>

    <g id="html">
        <path d="M7.04442 45.0018L3 0H47.4562L43.4064 44.9946L25.2011 50L7.04442 45.0018Z" fill="#1572B6"/>
        <path d="M25.2283 46.175L39.9402 42.1304L43.4011 3.68036H25.2283V46.175Z" fill="#33A9DC"/>
        <path d="M25.2283 19.984H32.5932L33.101 14.3322H25.2283V8.81256H39.1839L39.0506 10.2929L37.6839 25.5036H25.2283V19.984V19.984Z"
              fill="white"/>
        <path d="M25.2625 34.3179L25.2373 34.325L19.0392 32.6643L18.6431 28.2625H13.0554L13.8351 36.9286L25.2355 40.0679L25.2625 40.0607V34.3179V34.3179Z"
              fill="#EBEBEB"/>
        <path d="M32.1196 25.2697L31.4498 32.6607L25.2427 34.3214V40.0643L36.652 36.9286L36.7367 35.9964L37.7037 25.2697H32.1196V25.2697Z"
              fill="white"/>
        <path d="M25.2479 8.81256V14.3322H11.8037L11.6921 13.0911L11.4382 10.2929L11.3049 8.81256H25.2479V8.81256ZM25.2281 19.984V25.5036H19.1075L18.9958 24.2626L18.7437 21.4643L18.6105 19.984H25.2281V19.984Z"
              fill="#EBEBEB"/>
    </g>

    <g id="css">
        <path d="M7.0125 45.0018L3 0H47.0893L43.0714 44.9946L25.0179 50L7.0125 45.0018Z" fill="#E44F26"/>
        <path d="M25.0447 46.175L39.634 42.1304L43.0661 3.68036H25.0447V46.175Z" fill="#F1662A"/>
        <path d="M25.0446 20.3697H17.741L17.2375 14.7179H25.0446V9.19824H11.2053L11.3375 10.6804L12.6928 25.8893H25.0446V20.3697V20.3697ZM25.0446 34.7036L25.0196 34.7107L18.8732 33.0518L18.4803 28.65H12.9393L13.7125 37.3143L25.0196 40.4536L25.0446 40.4465V34.7036Z"
              fill="#EBEBEB"/>
        <path d="M25.0251 20.3697V25.8893H31.8216L31.1823 33.0482L25.0251 34.709V40.4518L36.3412 37.3143L36.4234 36.3822L37.7198 21.8518L37.8555 20.3697H25.0251V20.3697ZM25.0251 9.19824V14.7179H38.3573L38.468 13.4786L38.7198 10.6804L38.8519 9.19824H25.0251V9.19824Z"
              fill="white"/>
    </g>

    <g id="sass">
        <path d="M43.0539 27.1811C41.3096 27.1891 39.7935 27.563 38.5242 28.1156C38.0583 27.2947 37.5925 26.5635 37.5105 26.027C37.419 25.4014 37.3095 25.0194 37.419 24.2717C37.5287 23.524 38.0219 22.4594 38.0126 22.3782C38.0036 22.2969 37.903 21.9149 36.8984 21.9069C35.8939 21.8987 35.0263 22.0775 34.9258 22.3132C34.8253 22.5488 34.6336 23.0852 34.5057 23.6377C34.3322 24.4505 32.4966 27.3516 31.4465 28.8713C31.1084 28.2782 30.8162 27.758 30.7522 27.3435C30.6609 26.7179 30.5512 26.3359 30.6609 25.5882C30.7706 24.8405 31.2637 23.7761 31.2545 23.6947C31.2453 23.6134 31.1449 23.2314 30.1403 23.2234C29.1356 23.2152 28.268 23.394 28.1677 23.6297C28.0672 23.8655 27.9575 24.4179 27.7476 24.9544C27.5374 25.4908 25.0991 30.3343 24.4598 31.5857C24.2015 32.0921 23.9305 32.5934 23.647 33.0892C23.647 33.0892 23.6378 33.1136 23.6104 33.1542C23.5213 33.3096 23.4301 33.464 23.3366 33.6174V33.6254C23.1995 33.845 23.0534 34.048 22.9803 34.048C22.9255 34.048 22.825 33.463 22.9985 32.6665C23.3638 30.9844 24.2314 28.3676 24.2224 28.2782C24.2224 28.2294 24.3867 27.7744 23.6562 27.5386C22.9437 27.3029 22.6881 27.693 22.6241 27.693C22.5602 27.693 22.5144 27.8312 22.5144 27.8312C22.5144 27.8312 23.3092 24.8893 20.9985 24.8893C19.5556 24.8893 17.5646 26.2953 16.5783 27.563C15.457 28.1059 14.3368 28.6504 13.2174 29.1965C12.6788 29.4647 12.1216 29.7329 11.601 29.9847C11.5644 29.9523 11.528 29.9115 11.4914 29.8791C8.69674 27.2217 3.52778 25.3444 3.74694 21.7769C3.8292 20.4766 4.33137 17.0634 13.6742 12.9188C21.3637 9.54618 27.4828 10.4807 28.5422 12.553C30.0581 15.5112 25.2636 21.0048 17.318 21.8011C14.286 22.1019 12.6968 21.0617 12.2952 20.6716C11.875 20.2652 11.811 20.2408 11.6557 20.3222C11.4001 20.4442 11.5644 20.8098 11.6557 21.0211C11.8933 21.5735 12.8704 22.5488 14.5234 23.0284C15.9846 23.4508 19.5372 23.6866 23.8387 22.2075C28.6516 20.5496 32.4144 15.9419 31.3094 12.0818C30.2042 8.16468 22.8981 6.87257 15.9846 9.05855C11.875 10.359 7.41821 12.4068 4.21268 15.0724C0.404311 18.2417 -0.198526 20.9967 0.0480535 22.1507C0.934094 26.2465 7.28131 28.912 9.82015 30.8868C9.69226 30.9518 9.57338 31.0088 9.4731 31.0576C8.20358 31.6182 3.36326 33.8692 2.15779 36.2504C0.787987 38.9484 2.37714 40.8827 3.42731 41.1426C6.68768 41.9472 10.0393 40.5007 11.8384 38.1114C13.6375 35.7222 13.4184 32.6177 12.5874 31.1956C12.5782 31.1794 12.5692 31.163 12.5507 31.1468C12.8796 30.9762 13.2174 30.7974 13.5463 30.6268C14.1506 30.3089 14.7627 30.0026 15.382 29.7083C15.0714 30.4642 14.843 31.3662 14.7335 32.6665C14.5964 34.1944 15.2995 36.1772 16.222 36.9573C16.6331 37.2989 17.1171 37.3069 17.4277 37.3069C18.5053 37.3069 18.9894 36.5104 19.5282 35.5678C20.1857 34.4139 20.7793 33.073 20.7793 33.073C20.7793 33.073 20.0396 36.6974 22.0488 36.6974C22.7794 36.6974 23.5191 35.8522 23.848 35.4215V35.4296C23.848 35.4296 23.8662 35.4052 23.9028 35.3483C23.9758 35.2427 24.0215 35.1775 24.0215 35.1775V35.1615C24.3137 34.7063 24.9714 33.6742 25.9485 31.9595C27.2088 29.7491 28.4235 26.9861 28.4235 26.9861C28.4235 26.9861 28.5332 27.6606 28.9074 28.782C29.1268 29.4403 29.5831 30.1635 29.9486 30.8624C29.6564 31.2282 29.4736 31.4312 29.4736 31.4312L29.4828 31.4394C29.2453 31.7157 28.9897 32.0163 28.7065 32.3091C27.711 33.3654 26.5239 34.5765 26.3594 34.9257C26.1674 35.3401 26.2133 35.641 26.5787 35.8848C26.8435 36.0636 27.3183 36.0878 27.8024 36.0636C28.6975 36.0066 29.3275 35.8116 29.638 35.6898C30.1221 35.5353 30.6883 35.2995 31.2179 34.9501C32.1952 34.3081 32.7887 33.3898 32.734 32.1791C32.7066 31.5126 32.46 30.8462 32.1586 30.2204C32.2501 30.1067 32.3321 29.9929 32.4236 29.8791C33.9669 27.8718 35.1634 25.6694 35.1634 25.6694C35.1634 25.6694 35.2731 26.3439 35.6473 27.4655C35.8301 28.0344 36.2045 28.652 36.5332 29.2533C35.0811 30.3017 34.1861 31.5207 33.8664 32.3171C33.2912 33.7962 33.7385 34.4625 34.588 34.6169C34.9714 34.6901 35.5194 34.5275 35.9213 34.3731C36.4327 34.2269 37.0355 33.975 37.611 33.601C38.5883 32.9591 39.5287 32.0651 39.4739 30.8544C39.4465 30.3017 39.2822 29.7571 39.0538 29.2289C40.2867 28.774 41.8759 28.522 43.9031 28.7332C48.2505 29.1883 49.1089 31.6019 48.9444 32.6179C48.7801 33.6336 47.8668 34.1862 47.5656 34.3569C47.264 34.5277 47.1637 34.5845 47.1911 34.7063C47.2275 34.8851 47.3737 34.8771 47.6294 34.8445C47.9857 34.7877 49.9127 34.0236 49.9948 32.1545C50.1319 29.7653 47.5746 27.1567 43.0539 27.1811V27.1811ZM9.51874 37.2419C8.07569 38.6396 6.06663 39.1678 5.199 38.721C4.26752 38.2414 4.63278 36.1772 6.40447 34.6983C7.48206 33.7962 8.87027 32.959 9.79273 32.4471C10.0027 32.3333 10.3133 32.1709 10.6878 31.9677C10.7516 31.9351 10.7883 31.9189 10.7883 31.9189L11.0074 31.7969C11.6557 33.9098 11.0348 35.771 9.51874 37.2419V37.2419ZM20.0214 30.8868C19.519 31.9759 18.4688 34.7633 17.8296 34.6089C17.2816 34.4789 16.9435 32.3659 17.7199 30.2773C18.1126 29.2289 18.9436 27.9774 19.4277 27.4899C20.2131 26.7097 21.0807 26.4495 21.2907 26.7667C21.5557 27.1811 20.3318 30.2041 20.0214 30.8868V30.8868ZM28.6883 34.5763C28.4781 34.6739 28.2774 34.7389 28.1859 34.6901C28.1221 34.6575 28.2774 34.5275 28.2774 34.5275C28.2774 34.5275 29.3642 33.4874 29.7933 33.016C30.04 32.7397 30.3321 32.4147 30.6427 32.0489V32.1545C30.6427 33.398 29.2909 34.235 28.6881 34.5763H28.6883ZM35.3733 33.2192C35.218 33.1216 35.2454 32.7965 35.766 31.7807C35.967 31.3825 36.4417 30.7162 37.2547 30.0741C37.346 30.3342 37.41 30.5862 37.4008 30.8218C37.3916 32.3903 36.1315 32.9754 35.3733 33.2192Z"
              fill="#CD6799"/>
    </g>

    <g id="styled">
        <path d="M28.653 49.2831C28.728 49.1135 28.9172 48.9956 29.0547 48.8528C31.1527 46.6531 33.2685 44.473 35.3379 42.2465C35.9854 41.6484 36.4858 40.9086 36.7999 40.085C37.114 39.2613 37.2333 38.3762 37.1484 37.4988C37.0834 37.1231 36.9982 36.7512 36.8931 36.3846C36.3288 36.9203 35.8039 37.4077 35.2754 37.8988C34.4541 38.6629 33.6363 39.4307 32.8078 40.186C32.3193 40.6841 31.6912 41.0222 31.0064 41.1558C30.3216 41.2894 29.6125 41.2121 28.9726 40.9341C28.3248 40.6961 27.7612 40.2731 27.3517 39.7177C26.9422 39.1622 26.7049 38.4987 26.6693 37.8095C26.6501 37.7208 26.6244 37.6337 26.5925 37.5488C25.9622 38.0844 25.3587 38.5772 24.7606 39.0843L12.3281 49.6188C12.2424 49.692 12.1496 49.7831 12.0692 49.8545H28.644L28.619 49.8384C28.5298 49.7759 28.5762 49.4474 28.653 49.2831V49.2831Z"
              fill="#FFCEBF"/>
        <path d="M11.3098 49.2828C11.4572 49.0908 11.6352 48.9243 11.8365 48.79L29.0416 34.1935C30.2153 33.1972 31.3836 32.1955 32.5466 31.1885C32.6903 31.0883 32.8029 30.9497 32.8715 30.7885C33.1497 29.5763 33.1891 28.3216 32.9876 27.0943C32.8091 27.2193 32.7126 27.2729 32.6305 27.3603C31.2217 28.6209 29.8201 29.8922 28.4042 31.1456C27.9352 31.6177 27.3285 31.9289 26.6715 32.0344C26.0144 32.14 25.3408 32.0345 24.7475 31.733C24.1422 31.4473 23.6356 30.9879 23.2922 30.4134C22.9488 29.8388 22.7842 29.1751 22.8192 28.5066V27.9281C22.5603 28.1174 22.371 28.2442 22.1942 28.387C15.3081 33.9006 8.42325 39.4101 1.53955 44.9154C1.22887 45.1636 0.857484 45.7171 0.45039 45.1797C0.0432952 44.6422 0.662864 44.4208 0.975327 44.1709C8.31374 38.2823 15.6557 32.399 23.0013 26.5212C24.1976 25.5623 24.2761 25.1606 23.4977 23.6376L23.0334 24.0732C21.7604 25.257 20.473 26.4247 19.2196 27.6282C18.7054 28.1241 18.0615 28.4645 17.3621 28.6101C16.6627 28.7556 15.9365 28.7004 15.2671 28.4508C14.5978 28.2012 14.0127 27.7673 13.5795 27.1994C13.1462 26.6314 12.8824 25.9525 12.8186 25.241C12.5811 25.4195 12.3758 25.5498 12.1811 25.7016L1.28958 34.1435C1.10173 34.3277 0.8875 34.483 0.653937 34.6041C0.477661 34.6574 0.288369 34.6479 0.118286 34.5774V49.863H11.2884C11.2469 49.7712 11.2272 49.6711 11.2309 49.5704C11.2346 49.4697 11.2616 49.3712 11.3098 49.2828V49.2828Z"
              fill="#FFCEBF"/>
        <path d="M41.4856 0.758806C41.1821 1.75333 40.8875 2.74964 40.6214 3.75488C40.3757 4.46526 40.4043 5.24182 40.7016 5.93221C40.9989 6.6226 41.5434 7.17698 42.2284 7.48658C44.3235 8.58788 46.6844 9.08257 49.0454 8.91498V0.928429C49.0192 0.753325 49.0289 0.574714 49.074 0.403491C49.124 0.306638 49.1871 0.21712 49.2615 0.137451H41.4785C41.5981 0.27672 41.557 0.521334 41.4856 0.758806V0.758806Z"
              fill="#FF6196"/>
        <path d="M25.8546 17.9157C25.8176 18.8071 25.5057 19.6653 24.9618 20.3725C23.0174 22.8825 20.7845 25.155 18.3091 27.1431C17.9099 27.5127 17.4039 27.7463 16.8637 27.8104C16.3235 27.8746 15.7769 27.766 15.3023 27.5002C14.8298 27.2984 14.4315 26.9552 14.162 26.5179C13.8925 26.0805 13.765 25.5704 13.7971 25.0577C13.8543 24.4279 14.1157 23.8342 14.5416 23.3668C17.3098 20.7273 20.3089 18.3413 23.5031 16.2373C23.7123 16.0732 23.9678 15.9791 24.2334 15.9682C24.499 15.9573 24.7613 16.0302 24.9833 16.1766C25.275 16.3577 25.5108 16.6161 25.6646 16.923C25.8184 17.23 25.8841 17.5736 25.8546 17.9157V17.9157Z"
              fill="#FF87AF"/>
        <path d="M23.7136 28.7376C23.6722 28.3429 23.7228 27.944 23.8616 27.5722C24.0004 27.2005 24.2236 26.8659 24.5135 26.595C27.2239 24.0951 30.1318 21.8183 33.2089 19.7869C33.3018 19.728 33.3875 19.669 33.4892 19.6083C33.758 19.4143 34.0837 19.3151 34.415 19.3264C34.7463 19.3377 35.0645 19.4589 35.3194 19.6708C35.566 19.8798 35.7406 20.1611 35.8181 20.4749C35.8957 20.7888 35.8724 21.119 35.7515 21.4188C35.3622 22.7154 34.6437 23.8891 33.666 24.8256C31.6804 26.7817 29.6564 28.6985 27.5953 30.5749C27.2849 30.8941 26.8772 31.101 26.4363 31.1631C25.9954 31.2251 25.5463 31.1388 25.1599 30.9177C24.7538 30.7067 24.408 30.3959 24.155 30.0145C23.902 29.6332 23.7501 29.1938 23.7136 28.7376Z"
              fill="#FF87AF"/>
        <path d="M36.5976 29.9174C36.0977 30.453 35.5835 30.9637 35.1032 31.5118C34.9587 31.7237 34.8389 31.9513 34.7461 32.1903C35.0103 32.2689 35.3192 32.476 35.5335 32.4028C36.6244 32.0368 37.6886 31.5975 38.8866 31.1351C38.626 31.735 38.4296 32.2885 38.1528 32.7956C37.0127 34.7117 35.5849 36.4412 33.9194 37.9236C33.2861 38.5342 32.6285 39.1181 31.9464 39.6752C31.5852 39.9749 31.1509 40.1733 30.6878 40.2501C30.2248 40.3269 29.7496 40.2793 29.311 40.1122C28.8724 39.9451 28.486 39.6645 28.1914 39.2991C27.8969 38.9337 27.7046 38.4966 27.6344 38.0325C27.6058 37.7745 27.6286 37.5133 27.7015 37.2641C27.7745 37.015 27.8961 36.7827 28.0594 36.5809C30.4891 33.9424 33.2659 31.646 36.3137 29.7549C36.3508 29.7405 36.3901 29.7327 36.4298 29.7317L36.5976 29.9174Z"
              fill="#FF87AF"/>
        <path d="M40.6968 22.8057L43.7518 9.23584L45.8944 9.73757L44.7891 13.0961C43.7571 16.2207 42.7126 19.3454 41.7056 22.4736C41.5092 23.0521 41.2521 23.1592 40.6968 22.8057V22.8057Z"
              fill="#FF6196"/>
        <path d="M37.2441 30.787C37.5673 29.5532 37.8887 28.4123 38.1601 27.2589C38.4246 26.1403 38.9277 25.0921 39.6349 24.186C40.0688 23.6164 40.5562 23.8432 41.0544 23.9664C41.5151 24.0789 41.6311 24.4163 41.6508 24.8591C41.7234 26.0837 41.3505 27.2931 40.6009 28.2641C39.7085 29.3704 38.555 30.2374 37.2441 30.787V30.787Z"
              fill="#FF6196"/>
        <path d="M49.9766 1.59982C50.0032 1.20216 49.9931 0.802888 49.9462 0.4071C49.9094 0.296546 49.8364 0.20159 49.7391 0.137489C49.6599 0.07304 49.5671 0.0272698 49.4677 0.00357657C49.4106 -0.00713645 49.3302 0.0517849 49.2535 0.135704C49.1791 0.215372 49.116 0.304891 49.066 0.401744C49.0209 0.572966 49.0112 0.751578 49.0374 0.926681V8.91145C46.6764 9.07904 44.3155 8.58434 42.2204 7.48305C41.5354 7.17345 40.9909 6.61907 40.6936 5.92868C40.3963 5.23829 40.3677 4.46172 40.6134 3.75135C40.8795 2.74611 41.1741 1.7498 41.4776 0.755273C41.549 0.517801 41.5901 0.273187 41.4776 0.133918C41.415 0.0661206 41.3287 0.0251698 41.2366 0.0196462C41.1186 0.0209184 41.0044 0.0610869 40.9116 0.133918C40.7781 0.213785 40.6717 0.331995 40.6063 0.473164C40.2492 1.54447 39.9349 2.62648 39.6617 3.71921C39.5586 4.14982 39.5308 4.59503 39.5796 5.03512C39.6487 5.83141 39.9448 6.59115 40.4329 7.22414C40.9209 7.85712 41.5803 8.33677 42.3329 8.60613C42.6703 8.74718 42.8685 8.88645 42.7739 9.33104C42.6435 9.89526 42.5168 10.4595 42.3882 11.0255C41.5133 14.8607 40.6432 18.6978 39.7778 22.5366C39.7534 22.7078 39.6781 22.8676 39.5618 22.9955C38.9914 23.4489 38.5121 24.0063 38.1494 24.6382C37.6872 25.4721 37.3674 26.3772 37.2031 27.3164C37.1716 27.616 37.0633 27.9024 36.8888 28.1479C36.7143 28.3934 36.4794 28.5898 36.2068 28.718C35.4622 29.0948 34.7784 29.5822 33.9517 30.0893C34.0068 29.0951 33.9961 28.0984 33.9196 27.1057C33.8567 26.8003 33.87 26.4842 33.9585 26.1852C34.0469 25.8862 34.2077 25.6136 34.4267 25.3916C35.5156 24.3128 36.2919 22.959 36.6728 21.4742C36.7866 21.1301 36.8178 20.7639 36.7639 20.4055C36.71 20.047 36.5725 19.7062 36.3625 19.4107C36.1525 19.1152 35.876 18.8733 35.5552 18.7045C35.2344 18.5356 34.8784 18.4447 34.5159 18.4389C33.9291 18.4324 33.3529 18.5961 32.8572 18.9103C31.1535 20.0737 29.4793 21.2799 27.8364 22.5277C26.8597 23.2633 25.9402 24.0775 24.9938 24.8488C24.9531 24.805 24.9177 24.7565 24.8885 24.7042C24.8704 24.5728 24.835 24.4443 24.7832 24.3221C23.9922 23.1008 24.5403 22.2134 25.3992 21.3011C26.2939 20.3632 26.7883 19.1137 26.7776 17.8175C26.8053 17.1571 26.5985 16.5082 26.1937 15.9856C25.9781 15.7203 25.7123 15.5001 25.4117 15.3375C24.9846 15.1037 24.4962 15.0061 24.012 15.0578C23.5279 15.1095 23.0712 15.308 22.703 15.6267L22.2049 15.9838C21.0675 16.798 19.9159 17.5908 18.8214 18.4621C17.2235 19.7378 15.6601 21.056 14.1326 22.4152C13.4184 23.0455 12.8971 23.9061 12.1561 24.4917C8.29225 27.5432 4.38736 30.5392 0.496751 33.555C0.362972 33.6348 0.239962 33.7314 0.130723 33.8424C0.119477 33.8587 0.109906 33.876 0.102155 33.8942C0.0200217 34.0853 -0.0496127 34.4013 0.0468044 34.5173C0.070439 34.5425 0.0990042 34.5626 0.130723 34.5763C0.300806 34.6469 0.490097 34.6563 0.666374 34.603C0.899936 34.4819 1.11416 34.3266 1.30201 34.1424L12.1936 25.7005C12.3882 25.5488 12.5935 25.4113 12.831 25.2399C12.8949 25.9514 13.1586 26.6303 13.5919 27.1983C14.0252 27.7662 14.6102 28.2001 15.2796 28.4497C15.9489 28.6993 16.6752 28.7546 17.3746 28.609C18.0739 28.4634 18.7179 28.123 19.232 27.6271C20.4819 26.4237 21.7728 25.2559 23.0459 24.0721L23.5101 23.6365C24.2886 25.1595 24.21 25.5613 23.0137 26.5201C15.6622 32.4027 8.31606 38.2865 0.975266 44.1716C0.662803 44.4215 0.0450191 44.6483 0.450328 45.1804C0.855637 45.7124 1.22881 45.1643 1.53948 44.9161C8.42676 39.4156 15.3093 33.9079 22.187 28.3931C22.3656 28.2502 22.5531 28.1235 22.812 27.9342V28.5127C22.777 29.1811 22.9416 29.8449 23.285 30.4194C23.6284 30.994 24.135 31.4534 24.7403 31.7391C25.3336 32.0405 26.0072 32.146 26.6643 32.0405C27.3213 31.9349 27.928 31.6237 28.397 31.1517C29.8129 29.9018 31.2145 28.627 32.6233 27.3664C32.7126 27.2861 32.8161 27.2253 32.9804 27.1004C33.1819 28.3276 33.1425 29.5824 32.8643 30.7946C32.7957 30.9557 32.6831 31.0943 32.5394 31.1945C31.3752 32.2004 30.2069 33.202 29.0344 34.1995L11.8365 48.7978C11.6351 48.9321 11.4572 49.0986 11.3098 49.2906C11.2627 49.3782 11.2363 49.4753 11.2326 49.5747C11.2289 49.674 11.2479 49.7729 11.2883 49.8637C11.369 49.9242 11.4623 49.9657 11.5612 49.9852C11.6601 50.0046 11.7621 50.0016 11.8597 49.9762C11.9367 49.9539 12.0075 49.9142 12.0668 49.8602C12.1561 49.7887 12.2454 49.6977 12.3257 49.6245L24.7582 39.09C25.3563 38.5829 25.9598 38.083 26.5901 37.5545C26.622 37.6394 26.6477 37.7265 26.6669 37.8152C26.7025 38.5043 26.9398 39.1679 27.3493 39.7233C27.7588 40.2788 28.3224 40.7018 28.9702 40.9398C29.6101 41.2178 30.3192 41.2951 31.004 41.1615C31.6888 41.0279 32.3169 40.6898 32.8054 40.1917C33.6339 39.4364 34.4517 38.6686 35.273 37.9044C35.8086 37.4134 36.3264 36.9206 36.8906 36.3903C36.9958 36.7568 37.081 37.1288 37.146 37.5045C37.228 38.379 37.1074 39.2606 36.7934 40.0809C36.4794 40.9012 35.9805 41.6381 35.3355 42.2343C33.2661 44.4626 31.1503 46.6427 29.0523 48.8406C28.9148 48.9835 28.7255 49.1013 28.6506 49.2709C28.5756 49.4406 28.5274 49.7727 28.6166 49.8441L28.6416 49.8602C28.8288 49.9512 29.0394 49.983 29.2451 49.9512C29.3028 49.9394 29.3542 49.907 29.3898 49.8602C29.4397 49.8084 29.488 49.7441 29.5362 49.6959C31.236 47.939 32.9447 46.191 34.632 44.4215C35.3131 43.7315 35.9534 43.0024 36.5496 42.2379C37.3271 41.3771 37.8427 40.3122 38.0356 39.1685C38.2286 38.0247 38.0909 36.8497 37.6388 35.7815C37.5902 35.5433 37.6377 35.2956 37.7709 35.0923C37.887 34.8923 38.0155 34.6977 38.1476 34.5048C38.5704 33.9559 38.9225 33.3561 39.1957 32.7193C39.7237 31.1567 40.534 29.7042 41.5865 28.4341C42.0704 27.8207 42.4033 27.1021 42.5583 26.3363C42.7134 25.5706 42.6863 24.7791 42.4793 24.0257C42.4061 23.7393 42.4061 23.4391 42.4793 23.1526C43.3827 20.3547 44.313 17.5658 45.2343 14.775L46.4663 11.0362L46.8466 9.88098C47.6572 9.88098 48.4214 9.86491 49.182 9.88098C49.8141 9.89883 50.007 9.60244 49.9998 8.98823C49.9623 6.52423 49.9766 4.06202 49.9766 1.59982V1.59982ZM18.3071 27.1432C17.9079 27.5127 17.402 27.7463 16.8618 27.8105C16.3216 27.8746 15.775 27.7661 15.3004 27.5003C14.8279 27.2985 14.4296 26.9553 14.1601 26.5179C13.8906 26.0806 13.7631 25.5705 13.7952 25.0577C13.8524 24.428 14.1138 23.8342 14.5397 23.3669C17.3079 20.7274 20.307 18.3413 23.5012 16.2374C23.6755 16.1141 23.8738 16.0289 24.0832 15.9874C24.2237 15.9615 24.3677 15.9615 24.5082 15.9874C24.6764 16.0202 24.8369 16.0844 24.9813 16.1767C25.2733 16.3579 25.5093 16.6166 25.6631 16.9239C25.817 17.2312 25.8826 17.5752 25.8527 17.9175C25.8157 18.809 25.5038 19.6671 24.9599 20.3744C23.0154 22.8837 20.7825 25.1556 18.3071 27.1432V27.1432ZM27.5918 30.5874C27.2813 30.9067 26.8736 31.1136 26.4327 31.1756C25.9918 31.2377 25.5428 31.1514 25.1563 30.9303C24.7495 30.7188 24.4033 30.4072 24.1502 30.0248C23.8972 29.6424 23.7457 29.2019 23.7101 28.7448C23.6686 28.3501 23.7193 27.9512 23.8581 27.5795C23.9969 27.2077 24.22 26.8732 24.51 26.6022C27.2203 24.1023 30.1283 21.8256 33.2054 19.7941C33.2982 19.7352 33.3839 19.6762 33.4857 19.6155C33.7545 19.4215 34.0801 19.3223 34.4115 19.3336C34.7428 19.345 35.0609 19.4661 35.3158 19.678C35.5625 19.887 35.737 20.1683 35.8146 20.4822C35.8922 20.796 35.8688 21.1262 35.7479 21.426C35.3586 22.7227 34.6402 23.8963 33.6625 24.8328C31.6931 26.8004 29.6451 28.6948 27.5953 30.5803L27.5918 30.5874ZM38.1459 32.8033C37.0073 34.7163 35.582 36.4433 33.9196 37.9241C33.2863 38.5347 32.6287 39.1186 31.9466 39.6757C31.5854 39.9754 31.1511 40.1738 30.688 40.2506C30.225 40.3274 29.7498 40.2798 29.3112 40.1127C28.8726 39.9456 28.4862 39.665 28.1916 39.2996C27.897 38.9342 27.7048 38.4971 27.6346 38.033C27.606 37.775 27.6288 37.5138 27.7017 37.2646C27.7747 37.0155 27.8963 36.7832 28.0596 36.5814C30.4893 33.9429 33.2661 31.6466 36.3139 29.7554C36.351 29.741 36.3903 29.7332 36.43 29.7322L36.6085 29.9107C36.1086 30.4464 35.5944 30.957 35.1141 31.5052C34.9697 31.7171 34.8498 31.9447 34.757 32.1837C35.0212 32.2623 35.3301 32.4694 35.5444 32.3962C36.4068 32.1069 37.2549 31.7712 38.1637 31.4141L38.8976 31.1285C38.6226 31.7355 38.4262 32.289 38.1494 32.7961L38.1459 32.8033ZM40.5974 28.277C39.9313 29.1249 39.0966 29.8253 38.1459 30.3339C37.8518 30.4982 37.5501 30.6517 37.2406 30.7946C37.5584 29.5786 37.8762 28.452 38.1459 27.3128L38.1566 27.2664C38.4211 26.1478 38.9242 25.0996 39.6314 24.1936C40.0653 23.624 40.5527 23.8507 41.0509 23.9739C41.5115 24.0864 41.6276 24.4239 41.6472 24.8667C41.7204 26.0902 41.3488 27.2989 40.6009 28.2699L40.5974 28.277ZM44.7754 13.1002C43.7434 16.2249 42.6989 19.3495 41.6919 22.4777C41.5026 23.0651 41.2455 23.1723 40.6902 22.8187L43.3381 11.0469L43.7452 9.23998L45.8878 9.74171L45.4575 11.0469L44.7754 13.1002Z"
              fill="black"/>


    </g>

    <g id="ts">
        <path d="M0 25V50H25H50V25V0H25H0V25Z" fill="#007ACC"/>
        <path d="M11.0572 25.1658L11.0414 27.2134L14.2953 27.2134H17.5493V36.4594V45.7054H19.8509H22.1525V36.4594L22.1525 27.2134H25.4064H28.6604V25.2054C28.6604 24.0943 28.6366 23.1658 28.6048 23.142C28.581 23.1102 24.6207 23.0943 19.8191 23.1023L11.081 23.1261L11.0572 25.1658Z"
              fill="white"/>
        <path d="M40.3444 23.0682C41.6142 23.3857 42.5825 23.9492 43.4714 24.8698C43.9317 25.3619 44.6142 26.2587 44.6698 26.473C44.6856 26.5365 42.511 27.9968 41.1936 28.8143C41.146 28.846 40.9555 28.6397 40.7412 28.3222C40.0983 27.3857 39.4237 26.9809 38.392 26.9095C36.8761 26.8063 35.8999 27.6 35.9079 28.9254C35.9079 29.3143 35.9634 29.5444 36.1221 29.8619C36.4555 30.5524 37.0745 30.9651 39.019 31.8063C42.5983 33.346 44.1301 34.3619 45.0825 35.8063C46.146 37.4174 46.384 39.9889 45.6618 41.9016C44.8682 43.9809 42.8999 45.3936 40.1301 45.8619C39.2729 46.0127 37.2412 45.9889 36.3206 45.8222C34.3126 45.4651 32.4079 44.473 31.2333 43.1714C30.7729 42.6635 29.8761 41.3381 29.9317 41.2428C29.9555 41.2111 30.1618 41.0841 30.392 40.9492C30.6142 40.8222 31.4555 40.3381 32.2491 39.8778L33.6856 39.0444L33.9872 39.4889C34.4079 40.1317 35.3285 41.0127 35.884 41.3063C37.4793 42.1476 39.6698 42.0286 40.7491 41.0603C41.2094 40.6397 41.3999 40.2032 41.3999 39.5603C41.3999 38.9809 41.3285 38.727 41.0269 38.2905C40.638 37.7349 39.8444 37.2666 37.5904 36.2905C35.011 35.1793 33.8999 34.4889 32.884 33.3936C32.2967 32.7587 31.7412 31.7428 31.511 30.8936C31.3206 30.1873 31.2729 28.4174 31.4237 27.7032C31.9555 25.2111 33.8364 23.473 36.5507 22.9571C37.4317 22.7905 39.4793 22.854 40.3444 23.0682Z"
              fill="white"/>

    </g>

    <g id="storybook">
        <path d="M6.54741 45.9756L5.0018 4.79204C4.95075 3.43191 5.99365 2.27921 7.35209 2.19431L42.3816 0.0049703C43.7643 -0.0814501 44.9553 0.969414 45.0417 2.35214C45.045 2.40424 45.0466 2.45642 45.0466 2.50862V47.3854C45.0466 48.7708 43.9235 49.8939 42.538 49.8939C42.5005 49.8939 42.463 49.893 42.4255 49.8914L8.94162 48.3875C7.63756 48.3289 6.59636 47.28 6.54741 45.9756V45.9756Z"
              fill="#FF4785"/>
        <mask id="mask0_19293_794" style="mask-type:luminance" maskUnits="userSpaceOnUse" x="5" y="0" width="41"
              height="50">
            <path d="M6.54741 45.9756L5.0018 4.79204C4.95075 3.43191 5.99365 2.27921 7.35209 2.19431L42.3816 0.0049703C43.7643 -0.0814501 44.9553 0.969414 45.0417 2.35214C45.045 2.40424 45.0466 2.45642 45.0466 2.50862V47.3854C45.0466 48.7708 43.9235 49.8939 42.538 49.8939C42.5005 49.8939 42.463 49.893 42.4255 49.8914L8.94162 48.3875C7.63756 48.3289 6.59636 47.28 6.54741 45.9756V45.9756Z"
                  fill="white"/>
        </mask>
        <g mask="url(#mask0_19293_794)">
            <path d="M34.5713 6.13275L34.8105 0.377976L39.6211 0L39.8284 5.9347C39.8356 6.14125 39.674 6.31453 39.4675 6.32174C39.379 6.32483 39.2923 6.29647 39.2228 6.24171L37.3677 4.78032L35.1713 6.44643C35.0066 6.57133 34.7719 6.53911 34.647 6.37445C34.5944 6.30514 34.5676 6.21968 34.5713 6.13275ZM28.419 18.8057C28.419 19.7817 34.9929 19.3139 35.8754 18.6284C35.8754 11.9823 32.3093 8.48983 25.7791 8.48983C19.2489 8.48983 15.5901 12.0366 15.5901 17.3567C15.5901 26.6226 28.0948 26.8 28.0948 31.8541C28.0948 33.2728 27.4001 34.1152 25.8717 34.1152C23.8802 34.1152 23.0929 33.0981 23.1855 29.64C23.1855 28.8898 15.5901 28.656 15.3586 29.64C14.7689 38.0202 19.9899 40.4374 25.9643 40.4374C31.7535 40.4374 36.2923 37.3516 36.2923 31.7654C36.2923 21.8345 23.6024 22.1005 23.6024 17.1794C23.6024 15.1843 25.0844 14.9183 25.9643 14.9183C26.8906 14.9183 28.5579 15.0816 28.419 18.8057Z"
                  fill="white"/>
        </g>
    </g>

    <g id="axios">
        <path d="M24.7291 21.3188L22.0146 23.5301H23.7874V30.7183L24.7291 29.9598V21.3188Z" fill="#5A29E4"/>
        <path d="M25.5117 29.3178L28.2739 27.0509H26.4516V20.0271L25.5117 20.6814V29.3178Z" fill="#5A29E4"/>
        <path d="M47.9344 22.61C48.2474 22.7728 48.4727 22.9105 48.6104 23.0231L49.5868 21.1642C49.0986 20.8638 48.5103 20.5946 47.8218 20.3568C47.1458 20.1189 46.4135 20 45.6248 20C44.8737 20 44.179 20.1252 43.5406 20.3755C42.9146 20.6259 42.4139 20.9952 42.0384 21.4834C41.6754 21.9716 41.4938 22.5787 41.4938 23.3048C41.4938 24.1185 41.7505 24.7444 42.2637 25.1825C42.7895 25.6081 43.5906 25.9586 44.6672 26.234C45.5309 26.4594 46.2257 26.6659 46.7515 26.8537C47.2897 27.029 47.5589 27.3231 47.5589 27.7362C47.5589 28.3496 46.983 28.6563 45.8314 28.6563C45.2555 28.6563 44.711 28.5875 44.1978 28.4498C43.6845 28.3121 43.2339 28.1431 42.8458 27.9428C42.4703 27.7425 42.2011 27.561 42.0384 27.3982L41.0244 29.3698C41.6754 29.7829 42.4202 30.1084 43.2589 30.3463C44.0976 30.5841 44.9426 30.703 45.7938 30.703C46.5324 30.703 47.2209 30.6029 47.8593 30.4026C48.4977 30.1898 49.011 29.8518 49.399 29.3886C49.7996 28.9129 49.9999 28.287 49.9999 27.5109C49.9999 26.8724 49.8497 26.3592 49.5493 25.9712C49.2613 25.5706 48.842 25.2514 48.2912 25.0135C47.7529 24.7757 47.1145 24.5629 46.3759 24.3751C45.5372 24.1748 44.8988 23.9933 44.4606 23.8306C44.035 23.6678 43.8222 23.3924 43.8222 23.0044C43.8222 22.3409 44.4106 22.0092 45.5873 22.0092C46.0254 22.0092 46.451 22.0718 46.8641 22.1969C47.2772 22.3096 47.634 22.4473 47.9344 22.61Z"
              fill="#5A29E4"/>
        <path fill-rule="evenodd" clip-rule="evenodd"
              d="M34.058 30.6468C33.2318 30.6468 32.4807 30.5028 31.8047 30.2149C31.1288 29.9145 30.5463 29.5139 30.0581 29.0132C29.5699 28.4999 29.1943 27.9241 28.9314 27.2857C28.6689 26.6472 28.5371 25.99 28.5371 25.314C28.5371 24.6256 28.6748 23.9621 28.9502 23.3236C29.2256 22.6852 29.6141 22.1219 30.1148 21.6337C30.6155 21.133 31.2035 20.7387 31.8795 20.4507C32.5554 20.1628 33.294 20.0189 34.0952 20.0189C34.9214 20.0189 35.6728 20.1753 36.3488 20.4883C37.0248 20.7887 37.6006 21.1956 38.0763 21.7088C38.5645 22.2095 38.9397 22.7791 39.2026 23.4175C39.4654 24.056 39.5973 24.7069 39.5973 25.3703C39.5973 26.0588 39.4596 26.7223 39.1842 27.3608C38.9088 27.9867 38.5203 28.55 38.0196 29.0507C37.5314 29.5389 36.9497 29.927 36.2737 30.2149C35.5977 30.5028 34.8592 30.6468 34.058 30.6468ZM30.8279 25.3328C30.8279 25.8961 30.9598 26.4344 31.2226 26.9477C31.4851 27.4484 31.8544 27.8552 32.3301 28.1682C32.8183 28.4811 33.4004 28.6376 34.0764 28.6376C34.7649 28.6376 35.347 28.4749 35.8227 28.1494C36.2987 27.8114 36.6614 27.3921 36.9117 26.8913C37.1621 26.3781 37.2877 25.8523 37.2877 25.314C37.2877 24.7507 37.1562 24.2187 36.8934 23.718C36.6305 23.2172 36.2549 22.8167 35.7663 22.5162C35.2906 22.2033 34.7215 22.0468 34.058 22.0468C33.3695 22.0468 32.7808 22.2095 32.2925 22.535C31.8169 22.8605 31.4538 23.2736 31.2035 23.7743C30.9531 24.275 30.8279 24.7945 30.8279 25.3328Z"
              fill="#5A29E4"/>
        <path fill-rule="evenodd" clip-rule="evenodd"
              d="M0 30.5715L4.58164 20.0751H6.44058L11.0034 30.5715H8.59996L7.54843 28.1117H3.47378L2.42226 30.5715H0ZM5.5205 22.8353L3.98077 26.1401H7.0039L5.5205 22.8353Z"
              fill="#5A29E4"/>
        <path d="M13.9971 20.0751L16.8888 23.793L19.7805 20.0751H22.2403L18.0906 25.389L22.1089 30.5715H19.6491L16.8888 27.0039L14.1474 30.5715H11.65L15.6871 25.389L11.5186 20.0751H13.9971Z"
              fill="#5A29E4"/>
    </g>


    <!--    social-->

    <g id="linkedin">
        <path d="M25.5563 25.5666H21.1191V18.6037C21.1191 16.9434 21.0844 14.8097 18.7988 14.8097C16.485 14.8097 16.1325 16.6106 16.1325 18.4809V25.5656H11.6897V11.2491H15.9572V13.2019H16.0144C16.6106 12.0741 18.0609 10.8881 20.2247 10.8881C24.7256 10.8881 25.5609 13.8516 25.5609 17.7047V25.5656L25.5563 25.5666ZM6.67031 9.2925C5.23875 9.2925 4.09125 8.13469 4.09125 6.70875C4.09125 5.2875 5.24344 4.13156 6.67031 4.13156C8.09719 4.13156 9.25312 5.2875 9.25312 6.70875C9.25312 8.13469 8.09719 9.2925 6.67031 9.2925ZM8.89594 25.5666H4.44375V11.25H8.89594V25.5666ZM27.7837 0H2.2125C0.990937 0 0 0.966562 0 2.16281V27.8381C0 29.0344 0.990937 30.0009 2.2125 30.0009H27.7791C28.9988 30.0009 30 29.0344 30 27.8381V2.16281C30 0.966562 28.9988 0 27.7791 0L27.7837 0Z"
              fill="currentColor"/>
    </g>

    <g id="telegram">
        <path d="M27.5646 2.66147L0.985975 12.9638C-0.0835843 13.4435 -0.445347 14.4044 0.727416 14.9258L7.54603 17.1039L24.0324 6.86228C24.9326 6.21931 25.8541 6.39077 25.0612 7.09803L10.9016 19.9848L10.4567 25.4385C10.8687 26.2806 11.6231 26.2845 12.1042 25.866L16.0217 22.1401L22.731 27.1901C24.2893 28.1174 25.1372 27.5189 25.4724 25.8193L29.8731 4.87385C30.3301 2.78171 29.5508 1.85991 27.5646 2.66147Z"
              fill="currentColor"/>
    </g>

    <g id="email">
        <path d="M29.5899 4.67672C29.1671 4.0575 28.456 3.64828 27.6535 3.64828H2.34659C1.56097 3.64828 0.866279 4.04297 0.440186 4.64063L15.0464 16.8197L29.5899 4.67672Z"
              fill="currentColor"/>
        <path d="M0.00292969 6.71626V24.008C0.00292969 25.297 1.05762 26.3517 2.34668 26.3517H27.6536C28.9426 26.3517 29.9973 25.297 29.9973 24.008V6.7786L15.0465 19.2609L0.00292969 6.71626Z"
              fill="currentColor"/>
    </g>


    <g id="github">
        <path d="M27.9877 7.83764C26.6463 5.53943 24.8269 3.71993 22.5289 2.37873C20.2305 1.03747 17.7214 0.367004 14.9998 0.367004C12.2784 0.367004 9.76851 1.03767 7.47064 2.37873C5.17242 3.71986 3.35306 5.53943 2.01173 7.83764C0.670598 10.1358 0 12.6454 0 15.3664C0 18.6349 0.953599 21.574 2.86128 24.1845C4.76875 26.7952 7.23292 28.6017 10.2536 29.6042C10.6052 29.6695 10.8655 29.6236 11.0347 29.4677C11.204 29.3115 11.2886 29.116 11.2886 28.8819C11.2886 28.8429 11.2852 28.4915 11.2787 27.8273C11.272 27.1631 11.2689 26.5837 11.2689 26.0894L10.8197 26.1671C10.5332 26.2195 10.1719 26.2418 9.73567 26.2355C9.29965 26.2294 8.84699 26.1837 8.37833 26.0987C7.90947 26.0145 7.47337 25.8192 7.0697 25.5132C6.66623 25.2072 6.37981 24.8067 6.2105 24.3123L6.0152 23.8628C5.88502 23.5636 5.68007 23.2312 5.40008 22.8669C5.12009 22.5022 4.83695 22.255 4.55053 22.1248L4.41378 22.0269C4.32266 21.9619 4.23811 21.8834 4.15992 21.7923C4.0818 21.7013 4.02331 21.6102 3.98425 21.5189C3.94512 21.4276 3.97755 21.3527 4.08187 21.2939C4.18619 21.2352 4.37472 21.2066 4.64828 21.2066L5.03875 21.265C5.29918 21.3172 5.62131 21.4731 6.00555 21.7336C6.38959 21.994 6.70529 22.3325 6.95272 22.749C7.25235 23.2829 7.61333 23.6898 8.03671 23.9698C8.45974 24.2498 8.88626 24.3896 9.31586 24.3896C9.74546 24.3896 10.1165 24.357 10.4291 24.2922C10.7414 24.2271 11.0344 24.1292 11.3079 23.9991C11.4251 23.1264 11.7442 22.4559 12.2648 21.9872C11.5227 21.9092 10.8556 21.7918 10.263 21.6356C9.67069 21.4792 9.05865 21.2254 8.42725 20.8736C7.7955 20.5222 7.27143 20.0858 6.8549 19.5652C6.4383 19.0443 6.0964 18.3605 5.82968 17.5144C5.56282 16.6679 5.42936 15.6915 5.42936 14.5848C5.42936 13.009 5.94378 11.6681 6.97243 10.5613C6.49056 9.3766 6.53605 8.04854 7.10903 6.57723C7.48664 6.45992 8.04663 6.54796 8.78871 6.84081C9.53093 7.1338 10.0744 7.38478 10.4195 7.59288C10.7647 7.80091 11.0413 7.97719 11.2497 8.12016C12.4608 7.78175 13.7107 7.61251 14.9996 7.61251C16.2886 7.61251 17.5387 7.78175 18.7499 8.12016L19.4921 7.65164C19.9996 7.33902 20.5989 7.05253 21.2886 6.7921C21.9787 6.53181 22.5064 6.46012 22.8711 6.57744C23.4568 8.04881 23.509 9.37681 23.027 10.5615C24.0556 11.6683 24.5702 13.0096 24.5702 14.585C24.5702 15.6917 24.4363 16.6712 24.1698 17.5242C23.9031 18.3773 23.5582 19.0604 23.1352 19.575C22.7117 20.0895 22.1842 20.5224 21.5528 20.8738C20.9213 21.2254 20.3091 21.4792 19.7168 21.6356C19.1242 21.7919 18.4571 21.9095 17.715 21.9876C18.3918 22.5733 18.7303 23.4978 18.7303 24.7607V28.8814C18.7303 29.1155 18.8117 29.3109 18.9746 29.4671C19.1374 29.623 19.3944 29.6689 19.746 29.6036C22.7671 28.6012 25.2313 26.7946 27.1387 24.1839C29.0459 21.5734 29.9998 18.6343 29.9998 15.3658C29.9991 12.6452 29.3282 10.1358 27.9877 7.83764Z"
              fill="currentColor"/>
    </g>

    <g id="react-hook-form">
        <path fill-rule="evenodd" clip-rule="evenodd"
              d="M39.1129 2.10401C41.609 2.10401 43.8689 3.12108 45.5047 4.76478C47.1406 6.40847 48.1526 8.67977 48.1526 11.188V39.0583C48.1526 41.5668 47.1408 43.8378 45.505 45.4818C44.6665 46.3266 43.6701 46.9965 42.5731 47.4531C41.4762 47.9097 40.3002 48.1439 39.1129 48.1423H11.1332C8.63712 48.1423 6.37725 47.1252 4.74141 45.4815C3.10557 43.8378 2.09351 41.5665 2.09351 39.0583V11.188C2.09351 8.67952 3.10532 6.40847 4.74116 4.76453C5.57967 3.91973 6.57603 3.24979 7.673 2.79321C8.76996 2.33663 9.9459 2.10241 11.1332 2.10401H39.1129Z"
              fill="#EC5990" stroke="white" stroke-width="4"/>
        <path fill-rule="evenodd" clip-rule="evenodd"
              d="M32.948 12.783H27.783C27.4043 11.5975 26.3027 10.7928 25.0582 10.7928C23.8137 10.7928 22.7121 11.5975 22.3334 12.783H17.1646C15.1296 12.783 13.48 14.4326 13.48 16.4675V35.664C13.48 37.6989 15.1296 39.3485 17.1646 39.3485H32.948C34.983 39.3485 36.6327 37.6989 36.6327 35.664V16.4675C36.6327 14.4326 34.983 12.783 32.948 12.783ZM22.591 13.4528C22.6688 13.4548 22.7447 13.4294 22.8059 13.3811C22.867 13.3328 22.9095 13.2645 22.9259 13.1882C23.1452 12.1818 24.0362 11.4639 25.0664 11.4639C26.0965 11.4639 26.9875 12.1815 27.2068 13.1882C27.2233 13.2645 27.2657 13.3328 27.3268 13.3811C27.388 13.4294 27.464 13.4548 27.5417 13.4528H29.3438V15.6469C29.3438 16.2018 28.8938 16.6518 28.3389 16.6518H21.7903C21.2354 16.6518 20.7854 16.2018 20.7854 15.6469V13.4528H22.591ZM35.9627 35.664C35.9627 37.329 34.613 38.6787 32.948 38.6787H17.1646C15.4997 38.6787 14.15 37.329 14.15 35.664V16.4675C14.15 14.8024 15.4997 13.4528 17.1646 13.4528H20.1157V15.6469C20.1157 16.5719 20.8656 17.3216 21.7906 17.3216H28.3223C29.2473 17.3216 29.9972 16.5717 29.9972 15.6469V13.4528H32.9483C34.6133 13.4528 35.9629 14.8024 35.9629 16.4675L35.9627 35.664ZM32.2914 23.7295H26.396C26.3521 23.7294 26.3086 23.738 26.2681 23.7548C26.2275 23.7716 26.1906 23.7962 26.1595 23.8273C26.1284 23.8584 26.1037 23.8954 26.0868 23.9361C26.0699 23.9768 26.0612 24.0205 26.0611 24.0645C26.0612 24.1086 26.0699 24.1523 26.0868 24.193C26.1037 24.2337 26.1284 24.2707 26.1595 24.3018C26.1906 24.3329 26.2275 24.3575 26.2681 24.3743C26.3086 24.3911 26.3521 24.3997 26.396 24.3996H32.2914C32.3353 24.3997 32.3787 24.3911 32.4193 24.3743C32.4599 24.3575 32.4968 24.3329 32.5279 24.3018C32.559 24.2707 32.5837 24.2337 32.6005 24.193C32.6174 24.1523 32.6262 24.1086 32.6263 24.0645C32.6262 24.0205 32.6174 23.9768 32.6005 23.9361C32.5837 23.8954 32.559 23.8584 32.5279 23.8273C32.4968 23.7962 32.4599 23.7716 32.4193 23.7548C32.3787 23.738 32.3353 23.7294 32.2914 23.7295ZM23.5825 23.7295H17.6871C17.6433 23.7294 17.5998 23.738 17.5592 23.7548C17.5186 23.7716 17.4817 23.7962 17.4506 23.8273C17.4195 23.8584 17.3949 23.8954 17.378 23.9361C17.3611 23.9768 17.3524 24.0205 17.3523 24.0645C17.3524 24.1086 17.3611 24.1523 17.378 24.193C17.3949 24.2337 17.4195 24.2707 17.4506 24.3018C17.4817 24.3329 17.5186 24.3575 17.5592 24.3743C17.5998 24.3911 17.6433 24.3997 17.6871 24.3996H23.5825C23.6264 24.3997 23.6699 24.3911 23.7105 24.3743C23.751 24.3575 23.7879 24.3329 23.819 24.3018C23.8501 24.2707 23.8748 24.2337 23.8917 24.193C23.9086 24.1523 23.9173 24.1086 23.9174 24.0645C23.9173 24.0205 23.9086 23.9768 23.8917 23.9361C23.8748 23.8954 23.8501 23.8584 23.819 23.8273C23.7879 23.7962 23.751 23.7716 23.7105 23.7548C23.6699 23.738 23.6264 23.7294 23.5825 23.7295ZM32.3082 31.8355H26.3962C26.3523 31.8354 26.3089 31.844 26.2683 31.8608C26.2277 31.8776 26.1908 31.9022 26.1597 31.9333C26.1286 31.9644 26.1039 32.0014 26.0871 32.0421C26.0702 32.0828 26.0614 32.1264 26.0613 32.1705C26.0614 32.2146 26.0702 32.2583 26.0871 32.299C26.1039 32.3397 26.1286 32.3767 26.1597 32.4078C26.1908 32.4389 26.2277 32.4635 26.2683 32.4803C26.3089 32.4971 26.3523 32.5057 26.3962 32.5056H32.3082C32.3521 32.5057 32.3956 32.4971 32.4361 32.4803C32.4767 32.4635 32.5136 32.4389 32.5447 32.4078C32.5758 32.3767 32.6005 32.3397 32.6174 32.299C32.6343 32.2583 32.643 32.2146 32.6431 32.1705C32.643 32.1264 32.6343 32.0828 32.6174 32.0421C32.6005 32.0014 32.5758 31.9644 32.5447 31.9333C32.5136 31.9022 32.4767 31.8776 32.4361 31.8608C32.3956 31.844 32.3521 31.8354 32.3082 31.8355ZM23.5991 31.8355H17.6871C17.6433 31.8354 17.5998 31.844 17.5592 31.8608C17.5186 31.8776 17.4817 31.9022 17.4506 31.9333C17.4195 31.9644 17.3949 32.0014 17.378 32.0421C17.3611 32.0828 17.3524 32.1264 17.3523 32.1705C17.3524 32.2146 17.3611 32.2583 17.378 32.299C17.3949 32.3397 17.4195 32.3767 17.4506 32.4078C17.4817 32.4389 17.5186 32.4635 17.5592 32.4803C17.5998 32.4971 17.6433 32.5057 17.6871 32.5056H23.5991C23.643 32.5057 23.6865 32.4971 23.7271 32.4803C23.7676 32.4635 23.8045 32.4389 23.8356 32.4078C23.8667 32.3767 23.8914 32.3397 23.9083 32.299C23.9252 32.2583 23.9339 32.2146 23.934 32.1705C23.9339 32.1264 23.9252 32.0828 23.9083 32.0421C23.8914 32.0014 23.8667 31.9644 23.8356 31.9333C23.8045 31.9022 23.7676 31.8776 23.7271 31.8608C23.6865 31.844 23.643 31.8354 23.5991 31.8355Z"
              fill="white"/>
    </g>

    <g id="ionic">
        <path d="M24.9975 13.608C22.7442 13.608 20.5415 14.2762 18.6679 15.5281C16.7943 16.78 15.334 18.5593 14.4717 20.6411C13.6094 22.7229 13.3838 25.0137 13.8234 27.2237C14.263 29.4337 15.3481 31.4638 16.9414 33.0571C18.5348 34.6504 20.5648 35.7355 22.7748 36.1751C24.9849 36.6147 27.2756 36.3891 29.3574 35.5268C31.4392 34.6645 33.2186 33.2042 34.4704 31.3306C35.7223 29.4571 36.3905 27.2544 36.3905 25.001C36.3869 21.9805 35.1854 19.0848 33.0496 16.9489C30.9138 14.8131 28.018 13.6116 24.9975 13.608Z"
              fill="#478AFF"/>
        <path d="M41.356 14.6181C44.2223 14.6181 46.5458 12.2945 46.5458 9.42829C46.5458 6.56206 44.2223 4.23853 41.356 4.23853C38.4898 4.23853 36.1663 6.56206 36.1663 9.42829C36.1663 12.2945 38.4898 14.6181 41.356 14.6181Z"
              fill="#478AFF"/>
        <path d="M47.7462 14.6453L47.5285 14.1691L47.1884 14.5636C46.3376 15.5291 45.2618 16.2697 44.0562 16.7198L43.7161 16.8422L43.8522 17.1823C45.685 21.59 45.917 26.5003 44.5079 31.0612C43.0988 35.622 40.1375 39.5457 36.1379 42.1515C32.1383 44.7572 27.3526 45.8806 22.6113 45.3267C17.87 44.7728 13.4721 42.5766 10.1808 39.1191C6.88947 35.6616 4.91236 31.161 4.59248 26.3982C4.27261 21.6353 5.63015 16.9107 8.42959 13.0442C11.229 9.17764 15.2937 6.41308 19.9184 5.23016C24.5431 4.04724 29.436 4.52061 33.7481 6.56813L34.0678 6.72117L34.2072 6.38108C34.7155 5.19897 35.5075 4.16049 36.513 3.35769L36.9211 3.0176L36.4552 2.77613C32.9156 0.936453 28.9833 -0.0191929 24.9942 -0.00919977C19.5933 -0.00842421 14.3378 1.7414 10.0144 4.97839C5.69092 8.21538 2.53203 12.7654 1.01044 17.9476C-0.511153 23.1298 -0.313606 28.6654 1.57351 33.7259C3.46064 38.7865 6.93584 43.0998 11.479 46.0203C16.0222 48.9409 21.389 50.3117 26.7763 49.9274C32.1635 49.5432 37.2815 47.4247 41.3642 43.8889C45.4469 40.3532 48.2748 35.5903 49.4247 30.3132C50.5745 25.036 49.9844 19.5284 47.7428 14.6147L47.7462 14.6453Z"
              fill="#478AFF"/>
    </g>

    <g id="mui">
        <path d="M1.04175 5.20837L7.29175 9.37504V30.2084L1.04175 26.0417V5.20837Z" fill="#29B6F6"/>
        <path d="M48.9583 20.8334L42.7083 25V38.5417L48.9583 34.375V20.8334Z" fill="#0288D1"/>
        <path d="M48.9583 6.25L42.7083 10.4167V17.7083L48.9583 13.5417V6.25Z" fill="#0288D1"/>
        <path d="M36.4583 5.20837L30.2083 9.37504V30.2084L36.4583 26.0417V5.20837Z" fill="#0288D1"/>
        <path d="M1.04175 12.5L18.7501 23.9584V16.6667L1.04175 5.20837V12.5Z" fill="#29B6F6"/>
        <path d="M36.4583 12.5L18.75 23.9584V16.6667L36.4583 5.20837V12.5Z" fill="#0288D1"/>
        <path d="M36.4583 27.0833L18.75 38.5416V31.25L36.4583 19.7916V27.0833Z" fill="#0288D1"/>
        <path d="M48.9583 35.4167L31.25 46.875V39.5833L48.9583 28.125V35.4167Z" fill="#0288D1"/>
        <path d="M31.25 39.3385L18.75 31.25V38.5417L31.25 46.6302V39.3385Z" fill="#29B6F6"/>
    </g>

    <g id="radix">
        <path d="M24 50C19.7565 50 15.6869 48.3143 12.6863 45.3137C9.68571 42.3131 8 38.2435 8 34C8 29.7565 9.68571 25.6869 12.6863 22.6863C15.6869 19.6857 19.7565 18 24 18V50ZM24 0H8V16H24V0ZM34 16C36.1217 16 38.1566 15.1571 39.6569 13.6569C41.1571 12.1566 42 10.1217 42 8C42 5.87827 41.1571 3.84344 39.6569 2.34315C38.1566 0.842855 36.1217 0 34 0C31.8783 0 29.8434 0.842855 28.3431 2.34315C26.8429 3.84344 26 5.87827 26 8C26 10.1217 26.8429 12.1566 28.3431 13.6569C29.8434 15.1571 31.8783 16 34 16Z"
              fill="white"/>
    </g>

    <g id="router">
        <path d="M15.2473 29.4116C17.7507 29.4116 19.7802 27.3822 19.7802 24.8787C19.7802 22.3752 17.7507 20.3457 15.2473 20.3457C12.7438 20.3457 10.7143 22.3752 10.7143 24.8787C10.7143 27.3822 12.7438 29.4116 15.2473 29.4116ZM4.53297 38.4776C7.03646 38.4776 9.06593 36.4481 9.06593 33.9446C9.06593 31.4411 7.03646 29.4116 4.53297 29.4116C2.02948 29.4116 0 31.4411 0 33.9446C0 36.4481 2.02948 38.4776 4.53297 38.4776ZM45.467 38.4776C47.9705 38.4776 50 36.4481 50 33.9446C50 31.4411 47.9705 29.4116 45.467 29.4116C42.9635 29.4116 40.9341 31.4411 40.9341 33.9446C40.9341 36.4481 42.9635 38.4776 45.467 38.4776Z"
              fill="white"/>
        <path d="M30.5792 25.0697C30.4343 23.5552 30.3605 22.2947 29.2003 21.4088C27.731 20.2869 26.0666 21.0148 24.0165 20.2749C22.002 19.7875 20.5078 17.9989 20.5078 15.8671C20.5078 13.3603 22.5738 11.3281 25.1223 11.3281C27.0099 11.3281 28.6327 12.4429 29.3476 14.0396C30.4416 16.1176 29.7306 18.2324 31.1051 19.2977C32.7327 20.559 34.927 19.6353 37.3754 20.8304C38.1621 21.1919 38.828 21.7653 39.2973 22.476C39.7665 23.1866 40.0391 24.0345 40.0391 24.945C40.0391 27.0768 38.5449 28.8654 36.5304 29.3528C34.4802 30.0928 32.8159 29.3648 31.3466 30.4867C29.6943 31.7484 30.5789 33.8591 29.2323 36.0888C28.468 37.5569 26.9145 38.5618 25.1223 38.5618C22.5738 38.5618 20.5078 36.5297 20.5078 34.0229C20.5078 32.2019 21.598 30.6314 23.1715 29.9083C25.6199 28.7132 27.8142 29.6369 29.4418 28.3756C30.3807 27.6479 30.5792 26.5254 30.5792 25.0697Z"
              fill="#D0021B"/>
    </g>

    <g id="swagger">
        <path d="M24.8163 49.9994C11.4943 49.9075 -0.0892722 38.8513 0.000518567 24.8044C0.0868456 11.2883 11.3187 -0.0915952 25.2168 0.000555771C38.724 0.0903098 50.1197 11.3021 49.999 25.0379C50.111 38.6491 38.659 50.0955 24.8163 49.9994ZM24.8163 49.9994C11.4943 49.9075 -0.0892722 38.8513 0.000518567 24.8044C0.0868456 11.2883 11.3187 -0.0915952 25.2168 0.000555771C38.724 0.0903098 50.1197 11.3021 49.999 25.0379C50.111 38.6491 38.659 50.0955 24.8163 49.9994Z"
              fill="white"/>
        <path d="M24.8408 46.6792C13.2876 46.5995 3.24289 37.0115 3.32076 24.8304C3.39571 13.1091 13.1358 3.24057 25.1881 3.3208C36.9013 3.39864 46.7836 13.1216 46.6789 25.0331C46.7759 36.8364 36.8452 46.7626 24.8408 46.6792ZM24.8408 46.6792C13.2876 46.5995 3.24289 37.0115 3.32076 24.8304C3.39571 13.1091 13.1358 3.24057 25.1881 3.3208C36.9013 3.39864 46.7836 13.1216 46.6789 25.0331C46.7759 36.8364 36.8452 46.7626 24.8408 46.6792Z"
              fill="#49A32B"/>
        <path d="M33.0717 24.9914C33.0162 26.0247 32.1135 26.8827 31.2239 26.7329C31.2196 26.7329 31.2151 26.7329 31.2106 26.7329C30.2252 26.7343 29.4255 25.9364 29.4244 24.951C29.4579 23.963 30.2773 23.1843 31.2656 23.201C32.251 23.2058 33.1249 24.0385 33.0717 24.9914ZM17.2268 35.0039C17.5983 35.0148 17.9701 35.0069 18.3986 35.0069V37.6994C15.7356 38.1497 13.542 37.3936 13.0037 35.1425C12.8193 34.3148 12.7061 33.4728 12.6646 32.6257C12.6074 31.7289 12.7063 30.822 12.638 29.9268C12.4486 27.4635 12.1295 26.6226 9.76562 26.5061V23.4404C9.93504 23.4007 10.1068 23.3715 10.2797 23.3521C11.5757 23.2882 12.122 22.8909 12.4119 21.6143C12.5438 20.897 12.622 20.171 12.6451 19.442C12.7478 18.0324 12.7114 16.5999 12.9462 15.2132C13.2856 13.2079 14.5305 12.2337 16.5869 12.1247C17.172 12.0933 17.759 12.1199 18.422 12.1199V14.872C18.1491 14.8914 17.8991 14.9311 17.6507 14.9236C15.9749 14.8723 15.8882 15.443 15.7659 16.8303C15.6896 17.7002 15.7949 18.5851 15.7356 19.4579C15.6736 20.3265 15.5574 21.1906 15.3877 22.0449C15.1459 23.2829 14.3848 24.2037 13.33 24.9851C15.3776 26.3175 15.6106 28.388 15.7436 30.4904C15.8151 31.6202 15.7824 32.7579 15.897 33.8821C15.9864 34.7547 16.3257 34.9773 17.2268 35.0039ZM18.9526 23.201H18.9842C19.9632 23.2172 20.7441 24.0239 20.7279 25.0031C20.7279 25.0353 20.7268 25.0672 20.7249 25.0991C20.6699 26.0561 19.8497 26.7869 18.8928 26.7319C18.8542 26.7327 18.8159 26.7319 18.7773 26.73C17.8029 26.6816 17.0521 25.8523 17.1005 24.8779C17.1489 23.9034 17.9781 23.1526 18.9526 23.201ZM25.0534 23.201C26.1241 23.1928 26.8353 23.8867 26.8409 24.9452C26.8467 26.0321 26.1725 26.7276 25.1087 26.7321C24.0268 26.7369 23.3146 26.0526 23.3087 25.0005C23.3055 24.9468 23.3047 24.893 23.3063 24.8393C23.3364 23.9045 24.1186 23.171 25.0534 23.201ZM37.8268 21.8601C38.1116 22.9239 38.6662 23.2978 39.7861 23.3489C39.9696 23.3574 40.1523 23.3885 40.4039 23.4164V26.4813C40.2678 26.526 40.1281 26.5595 39.9864 26.5813C38.4856 26.6747 37.8015 27.2904 37.6499 28.7952C37.5531 29.7558 37.5611 30.7271 37.4946 31.6912C37.4667 32.7497 37.3704 33.8053 37.2063 34.8513C36.8233 36.7465 35.6401 37.692 33.685 37.8074C33.0558 37.8446 32.422 37.8132 31.7436 37.8132V35.0739C32.1087 35.0513 32.4311 35.0202 32.7542 35.0124C33.9223 34.9845 34.3353 34.6079 34.3925 33.4478C34.4558 32.1734 34.4834 30.8973 34.5404 29.6226C34.6231 27.78 35.1276 26.134 36.8441 24.9848C35.8619 24.2845 35.0733 23.4364 34.8691 22.2928C34.622 20.9066 34.5422 19.4898 34.4092 18.0843C34.3436 17.3816 34.3467 16.6728 34.2781 15.9707C34.2042 15.2127 33.6834 14.9505 32.9935 14.9335C32.5983 14.9239 32.2015 14.9316 31.6962 14.9316V12.2566C34.9207 11.7212 37.1481 12.7941 37.355 15.8792C37.4417 17.1747 37.4289 18.4763 37.5119 19.7718C37.5483 20.4765 37.6537 21.176 37.8268 21.8601Z"
              fill="white"/>

    </g>

    <g id="i18next">
        <path d="M31.1177 5.18127V14.5914L41.6922 41.7507C41.6922 41.7507 44.9205 48.3837 35.6872 50H14.6234C14.6234 50 6.01752 49.102 8.08066 42.2878L19.1933 14.5917V5.18127H31.1177Z"
              fill="#009688"/>
        <path d="M31.3409 4.08715H18.6558C17.6284 4.08715 16.7927 3.17318 16.7927 2.04394C16.7927 0.913973 17.6281 0 18.6558 0H31.3409C32.373 0 33.2073 0.913973 33.2073 2.04394C33.2073 3.17318 32.3727 4.08715 31.3409 4.08715Z"
              fill="#004D40"/>
        <path d="M27.9946 20.5459C29.3558 20.5459 30.4659 21.8759 30.4659 23.523C30.4659 25.1629 29.3551 26.4962 27.9946 26.4962C26.6302 26.4962 25.5234 25.1629 25.5234 23.523C25.5234 21.8752 26.6302 20.5459 27.9946 20.5459Z"
              fill="white"/>
        <path d="M20.4085 28.269C21.559 28.269 22.4916 27.1449 22.4916 25.7583C22.4916 24.3716 21.559 23.2476 20.4085 23.2476C19.2581 23.2476 18.3254 24.3716 18.3254 25.7583C18.3254 27.1449 19.2581 28.269 20.4085 28.269Z"
              fill="white"/>
        <path d="M32.0581 13.9677V9.49203C32.0581 9.49203 37.7337 8.24066 40.5702 14.8421C40.5702 14.8421 36.1496 18.0628 32.0581 13.9677Z"
              fill="#004D40"/>
        <path d="M18.1571 13.9677V9.49203C18.1571 9.49203 12.4808 8.24066 9.64575 14.8421C9.64575 14.8421 14.062 18.0628 18.1571 13.9677Z"
              fill="#004D40"/>
        <path d="M35.4705 32.4891C26.2413 29.6262 18.4819 31.1631 14.6894 32.325L10.865 41.5303C9.14321 47.0257 16.3325 47.748 16.3325 47.748H33.9252C41.6367 46.4452 38.9416 41.099 38.9416 41.099L35.4705 32.4891Z"
              fill="white"/>
        <path d="M22.1697 35.9095C22.1697 36.9021 20.8357 37.7096 19.1926 37.7096C17.5495 37.7096 16.2195 36.9018 16.2195 35.9095C16.2195 34.9129 17.5495 34.1084 19.1926 34.1084C20.8365 34.1091 22.1697 34.9129 22.1697 35.9095Z"
              fill="#004D40"/>
        <path d="M32.7569 35.9095C32.7569 36.9021 31.4229 37.7096 29.7838 37.7096C28.1359 37.7096 26.8066 36.9018 26.8066 35.9095C26.8066 34.9129 28.1359 34.1084 29.7838 34.1084C31.4236 34.1091 32.7569 34.9129 32.7569 35.9095Z"
              fill="#004D40"/>
    </g>

    <g id="antd">
        <path d="M22.8223 0.887791L0.884556 22.8075C-0.294852 23.9859 -0.294852 25.8893 0.884556 27.0677L22.8223 48.9874C24.0017 50.1659 25.9066 50.1659 27.086 48.9874L36.2842 39.7968C37.3405 38.7414 37.3405 37.0303 36.2842 35.9749C35.228 34.9196 33.5155 34.9196 32.4592 35.9749L25.4861 42.9423C25.1926 43.2356 24.7471 43.2356 24.4535 42.9423L6.93468 25.4378C6.64112 25.1445 6.64112 24.6994 6.93468 24.4061L24.4535 6.90162C24.7471 6.60831 25.1926 6.60831 25.4861 6.90162L32.4592 13.8689C33.5155 14.9243 35.228 14.9243 36.2842 13.8689C37.3405 12.8136 37.3405 11.1025 36.2842 10.0471L27.0871 0.857477C25.9028 -0.29546 23.9972 -0.286127 22.8223 0.887791Z"
              fill='#4286EB'/>
        <path d="M22.8223 0.887791L0.884556 22.8075C-0.294852 23.9859 -0.294852 25.8893 0.884556 27.0677L22.8223 48.9874C24.0017 50.1659 25.9066 50.1659 27.086 48.9874L36.2842 39.7968C37.3405 38.7414 37.3405 37.0303 36.2842 35.9749C35.228 34.9196 33.5155 34.9196 32.4592 35.9749L25.4861 42.9423C25.1926 43.2356 24.7471 43.2356 24.4535 42.9423L6.93468 25.4378C6.64112 25.1445 6.64112 24.6994 6.93468 24.4061L24.4535 6.90162C25.1845 6.27148 26.3771 4.99516 28.1284 4.69665C29.43 4.4748 30.8529 4.96308 32.3973 6.16149C31.3648 5.12984 29.5947 3.36183 27.0871 0.857477C25.9028 -0.29546 23.9972 -0.286127 22.8223 0.887791Z"
              fill='#149CFF'/>
        <path d="M38.4076 33.9364C39.4638 34.9918 41.1764 34.9918 42.2326 33.9364L49.0176 27.157C50.197 25.9785 50.197 24.0752 49.0178 22.8969L42.1736 16.0826C41.1148 15.0284 39.4018 15.03 38.3449 16.086C37.2887 17.1413 37.2887 18.8525 38.3449 19.9078L42.9675 24.5266C43.2611 24.8199 43.2611 25.2651 42.9675 25.5584L38.4076 30.1146C37.3513 31.1699 37.3513 32.881 38.4076 33.9364Z"
              fill='#F74A5C'/>
        <path d="M25.0638 30.9655C28.3351 30.9655 30.987 28.3158 30.987 25.0472C30.987 21.7786 28.3351 19.1289 25.0638 19.1289C21.7925 19.1289 19.1406 21.7786 19.1406 25.0472C19.1406 28.3158 21.7925 30.9655 25.0638 30.9655Z"
              fill='#F74A5C'/>
    </g>
</svg>
